<!DOCTYPE svg PUBLIC "-//W3C//DTD SVG 20010904//EN" "http://www.w3.org/TR/2001/REC-SVG-20010904/DTD/svg10.dtd">
<svg version="1.0" xmlns="http://www.w3.org/2000/svg" width="648px" height="111px" viewBox="0 0 6480 1110" preserveAspectRatio="xMidYMid meet">
<g id="layer101" fill="#313131" stroke="none">
<path d="M563 1050 c-24 -26 -43 -51 -43 -56 0 -5 63 -72 140 -148 77 -77 140 -144 140 -151 0 -6 -49 -58 -110 -114 -60 -56 -110 -109 -110 -117 0 -7 25 -39 57 -70 49 -50 59 -55 75 -45 15 9 23 9 34 0 17 -14 54 17 242 198 168 162 172 136 -65 369 l-188 183 -65 0 c-65 -1 -65 -1 -107 -49z"/>
<path d="M5602 873 c-40 -4 -42 -5 -36 -31 4 -15 11 -32 16 -39 8 -10 -17 -13 -109 -15 l-118 -3 -6 -35 -5 -35 -8 28 c-7 23 -13 27 -45 27 -21 0 -41 -3 -45 -7 -4 -4 -25 -6 -46 -4 -22 1 -40 -1 -40 -6 0 -5 -7 -18 -16 -29 -15 -18 -15 -18 -11 10 9 57 13 56 -219 56 -163 0 -216 -3 -219 -12 -2 -7 -9 -32 -15 -55 l-11 -43 -59 0 -59 0 -11 55 -11 55 -322 0 -322 0 -47 -46 -48 -46 0 46 0 46 -112 0 -113 0 -60 -108 -60 -107 -3 108 -3 107 -219 0 -219 0 -12 -55 -12 -55 -58 0 -58 0 -12 43 c-6 23 -13 48 -15 55 -3 10 -77 12 -346 10 l-343 -3 -3 -287 -2 -286 92 -7 c51 -4 106 -5 122 -3 l28 3 -1 228 -2 227 120 0 120 0 16 -57 c9 -32 38 -132 64 -223 l49 -165 58 -8 c33 -4 108 -6 168 -5 l108 3 13 40 c7 22 34 114 60 205 26 91 48 170 50 175 2 6 4 -85 4 -201 l1 -211 61 -7 c100 -10 186 -7 196 7 6 6 25 39 43 72 47 87 50 87 50 3 l0 -75 68 -6 c37 -4 88 -7 115 -7 l47 0 0 47 0 47 44 -43 45 -44 191 -5 191 -5 50 49 c48 48 49 49 49 111 l0 63 -59 0 c-32 0 -86 -3 -120 -6 l-61 -7 0 -34 c0 -26 -5 -36 -26 -45 -23 -11 -29 -10 -44 9 -14 18 -17 46 -19 163 -2 127 0 143 16 156 40 30 82 6 83 -48 l0 -28 103 0 104 0 53 -184 53 -183 66 -7 c36 -3 112 -6 168 -6 l103 0 6 28 c3 15 21 77 39 137 18 61 38 133 45 160 30 117 35 101 34 -110 l-2 -203 92 -7 c154 -12 143 -18 200 119 l50 119 26 -55 c14 -30 36 -82 50 -115 l24 -61 66 -6 c36 -3 89 -6 118 -6 l52 0 0 292 c0 160 3 288 7 285 3 -4 16 -35 29 -70 12 -34 41 -114 64 -177 23 -63 58 -161 78 -216 l37 -102 65 -6 c36 -3 94 -6 129 -6 61 0 63 1 58 23 -4 19 -141 396 -213 590 l-26 67 -81 -2 c-45 -1 -101 -3 -125 -5z m-2667 -355 c-11 -51 -18 -55 -31 -17 -17 48 -17 49 12 49 24 0 25 -2 19 -32z m1692 -13 c-12 -51 -21 -48 -31 8 -6 34 -5 37 17 37 24 0 24 -1 14 -45z"/>
<path d="M327 657 c-146 -141 -168 -166 -167 -193 0 -26 26 -56 185 -215 102 -101 187 -185 189 -187 2 -1 28 -5 58 -7 l55 -4 47 54 c25 29 46 57 46 62 0 5 -61 69 -135 143 -74 74 -135 142 -135 152 0 19 -4 15 118 127 103 94 112 116 65 159 -16 13 -40 36 -55 50 -23 21 -30 23 -43 12 -12 -10 -19 -10 -27 -2 -7 7 -17 12 -22 12 -6 -1 -87 -74 -179 -163z"/>
<path d="M1526 740 c-25 -27 -46 -57 -46 -66 0 -14 -6 -12 -30 11 l-30 29 -26 -25 c-24 -22 -26 -23 -38 -6 -7 9 -17 17 -22 17 -5 0 -55 -46 -112 -103 l-102 -102 105 -105 c103 -103 104 -104 125 -85 20 18 21 18 46 -6 l25 -23 30 32 c35 37 39 39 32 13 -3 -12 10 -34 40 -66 l44 -48 209 -5 209 -4 48 49 c47 49 48 51 45 104 -4 64 -4 65 -145 54 -91 -7 -93 -7 -93 -32 0 -48 -78 -74 -100 -34 -15 28 -13 304 2 319 20 20 41 14 83 -22 44 -38 40 -43 -30 -48 -40 -3 -40 -3 -43 -47 -2 -24 1 -48 7 -54 6 -6 76 -13 166 -15 l155 -4 0 161 0 161 -254 0 -253 0 -47 -50z m-41 -240 c0 -60 -2 -110 -4 -110 -2 0 -30 24 -61 54 l-57 54 56 56 c31 31 58 56 61 56 3 0 5 -49 5 -110z"/>
<path d="M6053 675 c-18 -18 -33 -37 -33 -42 0 -5 29 -38 65 -73 l65 -64 -67 -68 -68 -68 37 -37 c37 -36 38 -37 58 -18 20 18 21 18 43 -4 l24 -21 104 105 c57 58 105 109 107 113 1 4 -45 54 -103 112 l-104 104 -26 -24 -25 -23 -22 20 -23 21 -32 -33z"/>
</g>
<g id="layer102" fill="#592322" stroke="none">
<path d="M567 1052 c-26 -26 -47 -51 -47 -56 0 -4 63 -69 140 -143 77 -75 140 -144 140 -154 0 -9 -49 -63 -110 -119 -60 -57 -110 -109 -110 -115 0 -13 15 -31 77 -89 36 -33 45 -37 58 -26 12 10 18 10 30 0 17 -14 71 31 265 218 88 86 100 101 100 131 0 27 -9 43 -48 80 -26 25 -111 108 -189 184 l-141 137 -59 0 c-57 0 -60 -1 -106 -48z"/>
<path d="M353 678 c-81 -79 -157 -153 -170 -165 -14 -13 -23 -34 -23 -52 0 -25 28 -56 191 -214 188 -182 191 -184 242 -191 l52 -6 47 53 c26 28 47 57 48 62 0 6 -61 71 -135 145 -74 74 -135 142 -135 152 0 19 -4 15 118 127 103 94 112 116 65 159 -16 13 -40 36 -55 50 -22 20 -30 23 -42 13 -11 -9 -20 -10 -36 -1 -19 10 -35 -2 -167 -132z"/>
</g>
<g id="layer103" fill="#3f4040" stroke="none">
<path d="M567 1052 c-26 -26 -47 -51 -47 -56 0 -4 63 -69 140 -143 77 -75 140 -144 140 -154 0 -9 -49 -63 -110 -119 -60 -57 -110 -109 -110 -115 0 -13 15 -31 77 -89 36 -33 45 -37 58 -26 12 10 18 10 30 0 17 -14 65 26 263 216 90 87 102 103 102 133 0 26 -9 42 -43 75 -23 22 -108 105 -189 184 l-146 142 -59 0 c-57 0 -60 -1 -106 -48z"/>
<path d="M5608 873 c-27 -2 -48 -5 -48 -7 0 -1 45 -125 101 -276 56 -151 109 -297 118 -325 18 -49 19 -50 67 -57 80 -10 204 -9 204 3 0 5 -13 45 -30 87 -16 42 -45 122 -65 177 -91 253 -139 381 -148 393 -9 12 -85 14 -199 5z"/>
<path d="M353 679 c-81 -79 -157 -154 -170 -166 -14 -13 -23 -34 -23 -52 0 -25 28 -56 192 -215 l192 -186 54 0 c56 0 57 1 125 86 18 23 17 23 -118 161 -88 90 -135 145 -135 159 0 13 16 35 38 54 88 76 172 164 172 180 0 9 -25 40 -55 69 -48 45 -57 50 -74 39 -15 -9 -23 -9 -35 1 -14 12 -36 -6 -163 -130z"/>
<path d="M1590 783 c-40 -7 -100 -72 -100 -107 l0 -30 -35 34 -35 34 -25 -24 c-24 -23 -25 -23 -45 -5 -21 19 -22 18 -124 -84 l-103 -102 105 -105 c97 -98 106 -104 122 -89 17 15 50 11 50 -6 0 -17 28 -9 51 16 30 31 39 31 39 2 0 -14 17 -40 44 -66 l45 -44 201 -5 200 -5 49 49 c47 47 49 51 47 104 0 30 -4 54 -9 53 -4 -2 -56 -3 -117 -3 l-110 0 0 -28 c0 -37 -17 -52 -56 -52 -51 0 -56 14 -57 174 0 154 5 176 47 176 24 0 91 -62 80 -73 -4 -4 -26 -7 -50 -7 -40 0 -42 -1 -48 -35 -12 -61 -3 -71 66 -79 33 -3 105 -6 159 -6 l99 0 0 160 0 160 -232 -1 c-128 -1 -244 -4 -258 -6z m-100 -290 l0 -116 -21 19 c-12 10 -40 38 -63 61 l-42 42 55 55 c31 31 59 56 63 56 5 0 8 -52 8 -117z"/>
<path d="M2145 780 c-9 -14 -4 -559 5 -565 5 -3 59 -8 119 -12 l111 -6 0 232 0 232 121 -3 122 -3 14 -50 c8 -27 37 -127 65 -222 l50 -171 92 -7 c50 -4 124 -5 165 -3 l75 3 23 85 c34 124 49 175 77 265 l25 80 0 -212 1 -211 93 -7 c122 -9 159 -5 172 20 6 11 28 52 50 90 l40 70 3 -86 3 -86 61 -7 c33 -3 83 -6 109 -6 l49 0 0 52 0 53 46 -49 45 -49 192 -5 192 -4 48 49 c48 49 48 50 45 109 -4 70 -3 70 -145 59 l-93 -7 0 -32 c0 -54 -40 -74 -74 -37 -14 16 -16 39 -14 167 l3 149 28 9 c39 14 61 -2 65 -48 l3 -36 103 0 103 0 16 -53 c9 -28 34 -110 55 -182 l38 -130 50 -7 c27 -3 100 -7 162 -7 129 -1 114 -13 152 119 26 88 41 138 72 240 l23 75 3 -211 2 -211 62 -7 c33 -3 85 -6 115 -6 61 0 48 -16 117 150 17 41 36 76 41 78 6 2 30 -46 55 -105 l46 -108 54 -7 c30 -3 83 -6 118 -7 l62 -1 0 295 0 296 -112 -3 -113 -3 -5 -35 -5 -34 -13 28 c-11 25 -16 28 -50 22 -20 -3 -56 -6 -78 -6 -38 1 -43 -2 -55 -32 l-13 -33 -4 48 -3 47 -210 0 -211 -1 -14 -34 c-8 -19 -14 -44 -14 -55 0 -18 -6 -20 -64 -20 l-65 0 -11 55 -12 56 -323 -3 -324 -3 -46 -45 -45 -44 0 47 0 48 -111 -3 -112 -3 -61 -109 -61 -108 -3 111 -3 112 -216 -3 -216 -3 -15 -52 -15 -53 -58 0 -58 0 -17 55 -16 56 -339 -1 c-186 -1 -341 -5 -344 -10z m788 -229 c8 -1 -1 -68 -11 -85 -3 -6 -11 6 -18 25 -18 50 -17 68 4 64 9 -2 21 -4 25 -4z m1703 -7 c-3 -7 -8 -29 -12 -49 -8 -44 -19 -35 -29 22 -7 42 -6 43 19 41 16 -2 25 -7 22 -14z"/>
<path d="M6153 688 c-22 -21 -23 -21 -43 -3 -21 19 -21 18 -56 -16 l-34 -35 66 -68 67 -68 -69 -69 -68 -68 36 -37 c36 -35 36 -36 56 -16 20 20 20 20 44 -4 l23 -24 110 110 109 110 -104 105 c-58 57 -107 105 -110 105 -3 0 -15 -10 -27 -22z"/>
</g>
<g id="layer104" fill="#615c28" stroke="none">
<path d="M567 1046 l-46 -54 139 -138 c77 -76 140 -146 140 -155 0 -9 -47 -61 -103 -116 -57 -55 -107 -105 -112 -112 -5 -9 12 -33 50 -71 49 -49 61 -57 76 -47 13 8 21 8 33 -2 14 -12 26 -4 89 52 39 35 118 109 175 163 90 87 102 103 102 133 0 26 -9 42 -43 75 -23 22 -108 105 -189 184 l-146 142 -59 0 c-59 0 -59 0 -106 -54z"/>
</g>
<g id="layer105" fill="#545454" stroke="none">
<path d="M567 1046 l-46 -54 139 -138 c77 -76 140 -146 140 -155 0 -9 -49 -64 -110 -123 -60 -58 -110 -110 -110 -114 0 -4 26 -34 58 -65 52 -51 60 -56 72 -42 12 14 14 14 31 -1 17 -15 27 -7 181 137 90 84 169 164 176 177 8 13 11 34 8 47 -3 13 -90 104 -193 204 l-187 181 -56 0 c-56 0 -57 -1 -103 -54z"/>
<path d="M5609 871 l-46 -6 118 -324 c65 -178 120 -325 122 -327 9 -10 235 -16 240 -7 3 5 -11 57 -32 114 -22 57 -54 145 -71 194 -85 236 -125 341 -133 353 -10 13 -110 14 -198 3z"/>
<path d="M332 652 c-139 -134 -172 -172 -172 -194 0 -21 38 -63 193 -212 l192 -186 53 0 c56 0 57 1 125 86 18 23 17 23 -118 161 -88 90 -135 145 -135 159 0 13 16 35 38 54 88 76 172 164 172 180 0 9 -25 40 -55 69 -48 45 -57 50 -74 39 -15 -9 -23 -9 -33 0 -12 9 -47 -21 -186 -156z"/>
<path d="M1615 783 c-50 -5 -125 -73 -125 -112 0 -25 0 -25 -35 9 l-35 34 -25 -24 c-25 -23 -25 -23 -46 -4 l-22 19 -98 -105 -99 -104 99 -100 c97 -97 99 -98 122 -82 22 15 24 14 46 -6 l23 -22 28 27 c34 33 42 34 42 4 0 -14 17 -40 44 -66 l45 -44 198 -5 198 -5 47 44 c44 41 47 48 50 102 l3 57 -117 0 -118 0 0 -28 c0 -36 -17 -52 -55 -52 -58 0 -65 20 -65 176 1 150 8 174 51 174 24 -1 89 -51 89 -70 0 -5 -22 -10 -50 -10 l-50 0 0 -54 0 -53 61 -7 c34 -3 106 -6 160 -6 l99 0 0 159 0 159 -212 -1 c-117 0 -231 -2 -253 -4z m-129 -400 c-2 -2 -31 22 -64 55 l-60 59 62 62 61 61 3 -116 c1 -64 1 -119 -2 -121z"/>
<path d="M2193 783 l-43 -4 0 -284 0 -283 93 -7 c146 -11 132 -36 135 228 l2 227 125 0 c93 0 125 -3 125 -12 0 -7 28 -108 62 -224 l63 -212 65 -6 c116 -11 247 -7 258 7 6 7 18 38 26 68 31 121 99 345 106 352 4 5 9 -87 9 -204 1 -117 3 -214 5 -216 1 -1 54 -6 118 -9 l115 -7 54 94 54 94 3 -86 3 -86 67 -7 c37 -3 86 -6 110 -6 l42 0 2 233 3 232 2 -186 3 -185 44 -43 44 -44 186 -5 186 -5 51 51 c50 50 50 50 47 109 -4 69 -3 69 -145 58 l-93 -7 0 -39 c0 -33 -4 -40 -25 -45 -18 -4 -32 -1 -45 11 -18 16 -20 32 -20 165 0 164 4 174 62 168 30 -3 33 -6 36 -40 2 -21 4 -39 5 -39 1 -1 49 -4 106 -8 l103 -6 53 -178 c29 -98 56 -181 59 -184 3 -3 76 -6 163 -7 l157 -1 62 208 c34 115 65 211 68 215 3 3 6 -89 6 -205 l0 -211 95 -7 c52 -4 105 -5 117 -2 18 5 33 31 73 127 43 107 51 119 62 104 7 -10 13 -22 13 -27 0 -5 18 -51 41 -102 l41 -92 66 -7 c37 -3 88 -6 115 -6 l47 0 0 295 0 295 -49 0 c-26 0 -76 -3 -110 -6 l-61 -7 0 -33 c0 -39 -17 -45 -26 -10 -4 18 -14 25 -40 28 -20 2 -37 1 -40 -3 -2 -4 -22 -5 -44 -2 -38 5 -41 4 -53 -26 -16 -44 -27 -39 -27 14 l0 44 -142 0 c-79 0 -175 -2 -215 -5 l-72 -6 -12 -49 -13 -49 -63 0 c-60 0 -63 1 -69 28 -3 15 -9 38 -13 52 l-8 25 -321 0 -322 0 -45 -49 -45 -49 0 51 0 52 -54 0 c-29 0 -80 -3 -112 -6 l-60 -6 -62 -112 -62 -111 0 117 0 117 -172 -1 c-95 0 -193 -3 -217 -7 -42 -6 -44 -8 -58 -54 l-14 -48 -62 3 -62 3 -14 52 -14 52 -296 -1 c-163 -1 -315 -3 -338 -5z m749 -228 c7 -7 -14 -95 -22 -95 -7 0 -30 68 -30 89 0 11 42 16 52 6z m1698 -7 c0 -7 -6 -33 -14 -58 l-13 -45 -12 40 c-17 62 -15 75 14 75 14 0 25 -6 25 -12z"/>
<path d="M6155 690 c-22 -25 -34 -25 -51 -2 -12 16 -15 14 -48 -18 l-36 -34 67 -68 67 -67 -21 -23 c-74 -79 -103 -112 -103 -117 0 -9 49 -61 57 -61 4 0 14 7 23 15 15 13 19 13 38 -5 12 -11 25 -20 29 -20 5 0 55 47 112 104 l104 105 -108 105 c-60 58 -109 106 -110 106 -1 0 -10 -9 -20 -20z"/>
</g>
<g id="layer106" fill="#953737" stroke="none">
<path d="M555 809 c-4 -5 -19 -8 -33 -5 -24 5 -46 -12 -194 -157 -108 -105 -168 -170 -168 -183 0 -13 61 -80 168 -186 219 -218 219 -218 277 -218 48 0 52 3 118 86 18 23 17 23 -118 161 -88 90 -135 145 -135 159 0 13 16 35 38 54 88 76 172 164 172 180 0 15 -100 120 -114 120 -3 0 -8 -5 -11 -11z"/>
</g>
<g id="layer107" fill="#616061" stroke="none">
<path d="M569 1045 l-49 -50 140 -140 c88 -88 140 -148 140 -161 0 -11 -19 -37 -42 -59 -134 -121 -168 -156 -168 -173 0 -10 23 -40 50 -67 43 -43 53 -48 69 -38 14 9 22 8 34 -4 14 -14 31 -1 179 137 90 85 169 165 176 178 8 13 11 34 8 47 -3 13 -90 105 -193 204 l-187 182 -54 -3 c-51 -3 -58 -6 -103 -53z"/>
<path d="M5647 868 c-5 -3 -25 -5 -44 -3 -30 2 -33 0 -27 -19 10 -35 94 -269 105 -296 6 -14 33 -86 59 -161 67 -190 55 -176 152 -184 102 -8 154 -2 151 16 -1 17 -229 639 -236 645 -8 8 -148 10 -160 2z m90 -295 c-4 -3 -7 0 -7 7 0 7 3 10 7 7 3 -4 3 -10 0 -14z"/>
<path d="M549 804 c-8 -10 -15 -12 -23 -4 -5 5 -15 10 -20 10 -22 -1 -346 -325 -346 -346 0 -13 61 -80 168 -186 216 -215 216 -215 273 -216 44 -1 49 2 88 48 22 27 41 52 41 56 0 5 -61 69 -135 144 -74 75 -135 143 -135 151 0 8 50 62 111 121 86 82 110 110 105 125 -3 11 -30 40 -60 66 -47 40 -56 44 -67 31z"/>
<path d="M1615 783 c-51 -5 -129 -75 -122 -110 6 -32 -8 -29 -41 8 l-27 31 -27 -21 c-31 -25 -32 -25 -51 -7 -12 12 -28 1 -115 -87 l-102 -102 100 -99 c98 -99 99 -100 120 -81 20 18 21 18 45 -5 l24 -23 36 32 c43 37 47 38 40 9 -5 -18 4 -33 40 -68 54 -53 51 -52 284 -55 l164 -2 43 45 c41 42 44 50 44 99 l0 54 -106 -3 -106 -3 -12 -35 c-10 -31 -15 -35 -49 -38 -26 -2 -45 2 -58 14 -17 15 -19 32 -19 164 0 160 3 170 55 170 22 0 40 -10 64 -34 32 -33 33 -34 13 -45 -12 -6 -37 -11 -56 -11 l-36 0 0 -49 0 -48 61 -7 c34 -3 106 -6 160 -6 l99 0 0 159 0 159 -212 -1 c-117 0 -231 -2 -253 -4z m-123 -280 c-2 -65 -6 -120 -8 -122 -3 -3 -31 22 -64 54 l-60 59 62 63 c34 35 65 63 68 63 3 0 3 -53 2 -117z"/>
<path d="M2193 783 l-43 -4 0 -283 0 -283 78 -6 c42 -3 93 -4 112 -3 l35 3 3 226 2 227 123 0 123 0 65 -222 66 -223 34 -3 c112 -10 219 -12 253 -5 l39 9 61 209 c34 116 66 218 71 227 7 11 9 -58 7 -211 l-3 -228 58 -5 c31 -3 87 -3 123 0 l65 4 50 89 c27 49 52 89 55 89 3 0 4 -38 3 -85 -1 -46 2 -87 7 -90 5 -3 53 -6 107 -7 l98 -3 3 294 2 294 -107 -6 c-124 -8 -110 2 -186 -136 l-52 -94 -3 116 -3 115 -162 0 c-90 0 -187 -3 -217 -6 l-54 -7 -9 -45 c-10 -52 -19 -60 -67 -60 -67 0 -76 7 -89 65 l-12 54 -297 -1 c-163 -1 -316 -3 -339 -5z m474 -40 c-4 -3 -7 0 -7 7 0 7 3 10 7 7 3 -4 3 -10 0 -14z m278 -192 c6 -11 -16 -101 -25 -101 -6 0 -30 81 -30 100 0 13 47 13 55 1z"/>
<path d="M3925 783 c-31 -3 -50 -14 -82 -46 l-43 -41 0 -197 0 -196 43 -46 43 -45 92 -7 c51 -4 138 -4 194 0 l102 7 43 43 c40 41 43 47 43 98 0 71 -14 77 -169 61 -56 -6 -61 -9 -61 -31 0 -37 -18 -63 -45 -63 -49 0 -55 19 -55 179 0 165 4 175 62 169 30 -3 33 -6 36 -39 3 -36 4 -36 55 -43 29 -3 77 -6 107 -6 l55 0 44 -153 c60 -206 64 -217 95 -217 15 0 26 5 26 11 0 6 8 3 17 -6 14 -14 34 -16 132 -13 l115 4 53 179 c86 295 77 290 83 45 l5 -215 50 -6 c64 -7 185 1 185 13 0 18 93 228 101 228 5 0 11 -11 15 -25 3 -14 22 -60 41 -103 19 -42 37 -84 40 -93 6 -21 116 -31 226 -20 4 1 7 132 7 291 l0 290 -49 0 c-26 0 -75 -3 -109 -6 l-61 -7 -4 -41 -3 -41 -14 33 c-12 27 -19 32 -50 32 -20 0 -41 -5 -47 -11 -7 -7 -13 -7 -17 -1 -12 19 -59 0 -70 -29 -16 -43 -26 -35 -26 21 l0 49 -142 0 c-79 0 -176 -2 -216 -6 l-72 -5 -6 -38 c-10 -59 -17 -64 -81 -65 l-58 0 -13 45 c-8 25 -15 50 -17 56 -3 11 -501 16 -600 7z m442 -65 c-3 -8 -6 -5 -6 6 -1 11 2 17 5 13 3 -3 4 -12 1 -19z m-500 -55 c-4 -3 -7 0 -7 7 0 7 3 10 7 7 3 -4 3 -10 0 -14z m767 -140 c-4 -21 -7 -49 -7 -62 2 -43 -26 0 -33 52 -7 46 -6 47 21 47 26 0 27 -1 19 -37z"/>
<path d="M6155 690 c-21 -24 -38 -25 -55 -6 -10 13 -16 9 -42 -20 l-31 -35 66 -67 67 -67 -67 -68 -68 -67 33 -32 c31 -31 34 -32 46 -15 17 22 28 22 46 -3 8 -11 19 -20 25 -20 6 0 56 46 112 103 l102 102 -106 108 c-58 59 -107 107 -108 107 -1 0 -10 -9 -20 -20z"/>
</g>
<g id="layer108" fill="#606161" stroke="none">
<path d="M5646 868 c-6 -4 -19 -5 -28 -2 -21 6 -22 0 -8 -27 6 -10 7 -19 2 -19 -5 0 -14 12 -21 26 -6 15 -14 25 -16 22 -3 -2 13 -54 34 -114 66 -185 82 -224 92 -224 6 0 7 -5 4 -11 -7 -10 2 -39 31 -106 8 -17 14 -38 14 -48 0 -9 4 -13 10 -10 5 3 7 0 4 -8 -3 -8 6 -41 19 -73 20 -47 30 -58 51 -61 24 -3 26 -1 21 24 l-5 28 12 -25 c18 -37 26 -40 108 -36 57 2 75 7 74 17 -2 11 -90 257 -220 606 l-15 41 -76 4 c-41 2 -80 0 -87 -4z m-9 -35 c-4 -3 -7 0 -7 7 0 7 3 10 7 7 3 -4 3 -10 0 -14z m21 -38 c-3 -3 -9 2 -12 12 -6 14 -5 15 5 6 7 -7 10 -15 7 -18z m12 -55 c0 -5 -4 -10 -10 -10 -5 0 -10 5 -10 10 0 6 5 10 10 10 6 0 10 -4 10 -10z m27 -67 c-4 -3 -7 0 -7 7 0 7 3 10 7 7 3 -4 3 -10 0 -14z m-30 -25 c-3 -8 -6 -5 -6 6 -1 11 2 17 5 13 3 -3 4 -12 1 -19z m56 -28 c3 -11 1 -18 -4 -14 -5 3 -9 12 -9 20 0 20 7 17 13 -6z m26 -75 c0 -5 -4 -3 -9 5 -5 8 -9 22 -9 30 0 16 17 -16 18 -35z m-39 25 c0 -5 -4 -10 -10 -10 -5 0 -10 5 -10 10 0 6 5 10 10 10 6 0 10 -4 10 -10z m17 -77 c-4 -3 -7 0 -7 7 0 7 3 10 7 7 3 -4 3 -10 0 -14z m40 0 c-4 -3 -7 0 -7 7 0 7 3 10 7 7 3 -4 3 -10 0 -14z m43 -104 c0 -6 -4 -7 -10 -4 -5 3 -10 11 -10 16 0 6 5 7 10 4 6 -3 10 -11 10 -16z m18 -54 c-3 -3 -9 2 -12 12 -6 14 -5 15 5 6 7 -7 10 -15 7 -18z m12 -101 c0 -2 -7 -4 -15 -4 -8 0 -15 4 -15 10 0 5 7 7 15 4 8 -4 15 -8 15 -10z"/>
<path d="M550 805 c-9 -11 -16 -12 -31 -2 -16 10 -31 -1 -125 -93 -240 -235 -242 -237 -225 -268 5 -10 93 -99 195 -199 l185 -181 49 0 c47 -1 52 2 91 48 23 27 41 52 41 56 0 5 -61 69 -135 144 -74 75 -135 143 -135 151 0 8 50 62 111 121 86 82 110 110 105 125 -3 11 -30 40 -60 66 -45 39 -56 44 -66 32z"/>
<path d="M1612 783 c-34 -3 -42 -8 -38 -19 3 -8 2 -12 -3 -9 -16 9 -83 -67 -75 -84 4 -9 6 -27 5 -41 -1 -14 -2 -76 -2 -137 -1 -81 -4 -113 -13 -113 -6 0 -37 26 -69 58 l-58 58 71 68 c70 68 82 86 56 86 -7 0 -22 11 -32 25 -23 31 -41 32 -70 4 l-23 -21 -12 20 c-13 20 -17 17 -102 -66 -49 -48 -93 -95 -98 -104 -7 -13 10 -36 86 -112 79 -79 98 -94 109 -84 10 10 11 15 2 20 -8 6 -8 8 1 8 6 0 25 -12 42 -26 l31 -26 40 36 c22 20 42 36 44 36 3 0 1 -13 -4 -29 -7 -26 -3 -33 35 -71 52 -51 64 -53 284 -54 l164 -1 44 44 c40 42 43 49 43 98 l0 53 -57 0 c-32 0 -81 -3 -108 -6 -44 -6 -51 -9 -53 -30 -1 -13 4 -24 11 -25 23 -2 -38 -17 -74 -18 -63 -2 -69 15 -69 180 0 100 4 149 12 157 23 23 72 14 103 -18 16 -17 40 -30 54 -31 23 -1 21 -2 -9 -11 -19 -5 -54 -12 -77 -15 l-43 -5 0 -50 0 -50 34 3 c19 2 38 0 42 -4 4 -4 61 -7 126 -7 l118 0 0 160 0 160 -65 0 c-52 0 -65 -3 -65 -16 0 -14 -2 -14 -22 0 -18 13 -48 16 -148 14 -69 -1 -145 -3 -168 -5z m8 -17 c0 -3 -5 -8 -12 -12 -7 -4 -8 -3 -4 4 7 12 16 16 16 8z m-47 -38 c-4 -7 -10 -107 -13 -223 l-6 -210 -2 203 c-2 184 4 242 24 242 3 0 2 -6 -3 -12z m307 -72 c0 -2 -7 -6 -15 -10 -8 -3 -15 -1 -15 4 0 6 7 10 15 10 8 0 15 -2 15 -4z m-343 -23 c-4 -3 -7 0 -7 7 0 7 3 10 7 7 3 -4 3 -10 0 -14z m-207 4 c0 -2 -10 -12 -22 -23 l-23 -19 19 23 c18 21 26 27 26 19z m567 -14 c-4 -3 -10 -3 -14 0 -3 4 0 7 7 7 7 0 10 -3 7 -7z m40 -20 c-4 -3 -10 -3 -14 0 -3 4 0 7 7 7 7 0 10 -3 7 -7z m-697 -58 c-23 -24 -40 -20 -40 10 0 6 5 3 10 -5 8 -13 11 -13 27 3 27 27 29 20 3 -8z m-40 -19 c0 -2 -7 -7 -16 -10 -8 -3 -12 -2 -9 4 6 10 25 14 25 6z m10 -46 c0 -5 -2 -10 -4 -10 -3 0 -8 5 -11 10 -3 6 -1 10 4 10 6 0 11 -4 11 -10z m57 -57 c-4 -3 -10 -3 -14 0 -3 4 0 7 7 7 7 0 10 -3 7 -7z m268 -33 c-3 -5 -12 -10 -18 -10 -7 0 -6 4 3 10 19 12 23 12 15 0z m352 -17 c-4 -3 -10 -3 -14 0 -3 4 0 7 7 7 7 0 10 -3 7 -7z m17 -28 c-4 -8 -11 -15 -16 -15 -6 0 -5 6 2 15 7 8 14 15 16 15 2 0 1 -7 -2 -15z m-294 -105 c0 -5 -8 -10 -17 -10 -15 0 -16 2 -3 10 19 12 20 12 20 0z"/>
<path d="M2193 783 l-43 -4 0 -279 c0 -244 2 -279 16 -284 28 -11 44 -6 45 12 0 13 2 14 6 2 10 -25 23 -28 92 -25 l66 4 3 225 2 225 98 3 c147 5 150 4 162 -45 6 -23 15 -51 20 -62 5 -11 16 -50 25 -87 8 -37 21 -84 29 -104 l13 -38 6 31 c3 17 12 33 20 36 11 4 13 0 10 -14 -3 -10 -9 -17 -13 -14 -12 7 -20 -66 -10 -86 6 -10 10 -27 10 -38 0 -13 7 -22 18 -22 9 -1 28 -4 42 -7 36 -7 209 -8 244 -2 28 5 30 10 90 215 34 116 66 218 71 227 7 11 9 -56 7 -206 l-3 -223 53 -10 c29 -6 85 -9 123 -6 l70 5 50 89 c27 49 52 89 55 89 3 0 5 -33 4 -72 0 -40 1 -80 3 -89 6 -21 47 -17 51 4 2 10 7 15 12 12 5 -3 7 -12 3 -20 -3 -9 1 -15 8 -16 14 -1 117 -1 132 0 4 1 7 132 7 291 l0 290 -49 0 c-26 0 -76 -3 -109 -6 l-62 -7 -62 -114 -63 -114 -3 120 -3 121 -197 -5 c-108 -2 -204 -5 -213 -5 -10 -1 -20 -19 -28 -50 -13 -51 -24 -60 -74 -60 -63 0 -73 8 -87 65 l-13 54 -296 -1 c-163 -1 -315 -3 -338 -5z m477 -38 c0 -14 -2 -25 -4 -25 -2 0 -6 11 -8 25 -3 14 -1 25 3 25 5 0 9 -11 9 -25z m397 -7 c-3 -7 -5 -2 -5 12 0 14 2 19 5 13 2 -7 2 -19 0 -25z m220 -5 c-3 -10 -5 -4 -5 12 0 17 2 24 5 18 2 -7 2 -21 0 -30z m-17 23 c0 -3 -4 -8 -10 -11 -5 -3 -10 -1 -10 4 0 6 5 11 10 11 6 0 10 -2 10 -4z m347 -13 c-4 -3 -7 0 -7 7 0 7 3 10 7 7 3 -4 3 -10 0 -14z m-376 -36 c-10 -9 -11 -8 -5 6 3 10 9 15 12 12 3 -3 0 -11 -7 -18z m359 4 c-5 -11 -15 -23 -21 -27 -6 -3 -3 5 6 20 20 30 30 35 15 7z m-537 -6 c-3 -9 -8 -14 -10 -11 -3 3 -2 9 2 15 9 16 15 13 8 -4z m-398 -5 c3 -5 1 -10 -4 -10 -6 0 -11 5 -11 10 0 6 2 10 4 10 3 0 8 -4 11 -10z m359 -5 c3 -8 1 -15 -4 -15 -6 0 -10 7 -10 15 0 8 2 15 4 15 2 0 6 -7 10 -15z m-325 -40 c0 -5 -4 -3 -9 5 -5 8 -9 22 -9 30 0 16 17 -16 18 -35z m578 18 c-4 -3 -7 0 -7 7 0 7 3 10 7 7 3 -4 3 -10 0 -14z m-604 -13 c3 -11 1 -18 -4 -14 -5 3 -9 12 -9 20 0 20 7 17 13 -6z m587 0 c0 -5 -5 -10 -11 -10 -5 0 -7 5 -4 10 3 6 8 10 11 10 2 0 4 -4 4 -10z m294 -30 c-10 -16 -20 -28 -22 -26 -4 5 28 56 35 56 2 0 -4 -13 -13 -30z m-304 -4 c0 -3 -5 -8 -12 -12 -7 -4 -8 -3 -4 4 7 12 16 16 16 8z m264 -66 c-10 -16 -20 -28 -22 -26 -4 5 28 56 35 56 2 0 -4 -13 -13 -30z m-27 3 c-4 -3 -7 0 -7 7 0 7 3 10 7 7 3 -4 3 -10 0 -14z m-534 -23 c15 -18 15 -20 1 -20 -11 0 -15 -6 -11 -20 3 -11 1 -18 -4 -14 -5 3 -9 -4 -9 -15 0 -36 -15 -23 -28 24 -7 25 -12 50 -12 55 0 18 45 11 63 -10z m54 4 c-3 -3 -12 -4 -19 -1 -8 3 -5 6 6 6 11 1 17 -2 13 -5z m473 -49 c-7 -9 -15 -13 -17 -11 -6 6 20 36 26 30 2 -2 -2 -10 -9 -19z m-484 -31 c-8 -21 -15 -31 -15 -22 -1 18 20 70 26 65 2 -2 -3 -21 -11 -43z m630 -20 c-19 -19 -20 -8 -3 29 11 24 12 24 15 7 2 -11 -4 -27 -12 -36z m-169 19 c-4 -3 -10 -3 -14 0 -3 4 0 7 7 7 7 0 10 -3 7 -7z m-509 -88 c0 -16 -2 -15 -8 5 -11 34 -11 60 0 35 5 -11 8 -29 8 -40z m689 -78 c-2 -23 -3 -1 -3 48 0 50 1 68 3 42 2 -26 2 -67 0 -90z m-666 62 c-5 -13 -10 -19 -10 -12 -1 15 10 45 15 40 3 -2 0 -15 -5 -28z m626 14 c-4 -3 -7 0 -7 7 0 7 3 10 7 7 3 -4 3 -10 0 -14z m-820 -45 c-3 -8 -6 -5 -6 6 -1 11 2 17 5 13 3 -3 4 -12 1 -19z m-9 -32 c-7 -8 -15 -12 -17 -11 -5 6 10 25 20 25 5 0 4 -6 -3 -14z m499 -8 c-3 -8 -6 -5 -6 6 -1 11 2 17 5 13 3 -3 4 -12 1 -19z m-460 -5 c-4 -3 -7 0 -7 7 0 7 3 10 7 7 3 -4 3 -10 0 -14z m13 -43 c0 -5 -5 -10 -11 -10 -5 0 -7 5 -4 10 3 6 8 10 11 10 2 0 4 -4 4 -10z m777 -7 c-4 -3 -7 0 -7 7 0 7 3 10 7 7 3 -4 3 -10 0 -14z m-1400 0 c-4 -3 -10 -3 -14 0 -3 4 0 7 7 7 7 0 10 -3 7 -7z m590 0 c-4 -3 -10 -3 -14 0 -3 4 0 7 7 7 7 0 10 -3 7 -7z m503 -3 c0 -5 -2 -10 -4 -10 -3 0 -8 5 -11 10 -3 6 -1 10 4 10 6 0 11 -4 11 -10z"/>
<path d="M3925 783 c-33 -3 -48 -13 -83 -51 l-42 -47 1 -192 1 -192 33 -30 c18 -16 35 -35 37 -43 6 -17 72 -22 250 -21 l147 2 42 40 c38 35 43 45 47 94 3 39 0 57 -9 63 -19 12 -138 14 -145 3 -3 -5 -10 -7 -15 -3 -6 3 -22 3 -36 -1 -21 -5 -24 -11 -21 -34 7 -46 -52 -70 -86 -35 -13 13 -16 42 -16 163 0 101 4 151 12 159 16 16 88 16 89 0 1 -7 0 -25 -1 -40 -1 -25 2 -28 29 -28 17 0 31 5 31 10 0 6 4 10 10 10 5 0 7 -7 4 -15 -5 -12 6 -15 68 -15 l73 0 28 -90 c15 -49 27 -96 27 -105 0 -10 5 -13 12 -9 7 4 8 3 4 -5 -9 -14 31 -143 47 -153 17 -11 37 -10 37 2 0 6 -9 10 -20 10 -11 0 -20 4 -20 9 0 5 -3 18 -6 28 -5 13 -2 12 10 -4 10 -13 26 -23 37 -23 10 0 19 -7 19 -15 0 -22 36 -27 151 -22 l104 5 53 183 c64 221 81 269 93 269 6 0 7 -5 3 -11 -8 -14 -9 -423 0 -426 19 -8 46 -1 46 13 0 8 4 13 10 9 5 -3 7 -12 4 -19 -3 -7 1 -16 8 -19 21 -8 158 5 158 15 0 18 93 228 101 228 5 0 13 -18 19 -40 6 -21 15 -42 20 -45 4 -3 16 -29 26 -58 24 -72 42 -97 70 -97 27 0 28 3 14 31 -7 13 -7 19 0 19 5 0 10 -6 10 -14 0 -33 29 -46 93 -41 34 2 65 4 70 5 4 0 7 131 7 290 l0 290 -49 0 c-26 0 -75 -3 -109 -6 l-61 -7 -4 -41 -3 -41 -14 33 c-13 28 -19 32 -52 32 -20 0 -40 -5 -43 -10 -5 -7 -11 -8 -19 -1 -7 6 -17 6 -26 1 -8 -5 -18 -6 -22 -4 -5 3 -16 -12 -26 -33 l-17 -38 -3 58 -3 58 -72 -3 -72 -3 -6 -40 -6 -40 -2 37 c-1 34 -4 38 -37 44 -20 4 -71 4 -113 0 -42 -4 -84 -7 -94 -7 -19 0 -37 -35 -37 -74 0 -19 -7 -25 -33 -30 -18 -4 -49 -5 -68 -3 -31 3 -35 7 -47 48 -8 25 -15 51 -18 58 -2 8 -25 12 -66 12 -79 0 -139 -10 -132 -21 3 -5 1 -9 -5 -9 -5 0 -11 6 -13 13 -4 9 -48 12 -174 13 -93 1 -187 -1 -209 -3z m0 -23 c-3 -5 -11 -10 -16 -10 -6 0 -7 5 -4 10 3 6 11 10 16 10 6 0 7 -4 4 -10z m842 -7 c-4 -3 -7 0 -7 7 0 7 3 10 7 7 3 -4 3 -10 0 -14z m184 -10 c-12 -20 -14 -14 -5 12 4 9 9 14 11 11 3 -2 0 -13 -6 -23z m-604 0 c-4 -3 -10 -3 -14 0 -3 4 0 7 7 7 7 0 10 -3 7 -7z m-460 -20 c-8 -10 -17 -31 -20 -48 -4 -29 -4 -28 -6 6 -1 34 13 59 33 59 5 0 2 -8 -7 -17z m483 -5 c0 -18 -2 -20 -9 -8 -6 8 -7 18 -5 22 9 14 14 9 14 -14z m347 5 c-4 -3 -7 0 -7 7 0 7 3 10 7 7 3 -4 3 -10 0 -14z m40 -15 c-3 -7 -5 -2 -5 12 0 14 2 19 5 13 2 -7 2 -19 0 -25z m461 -4 c-7 -15 -14 -21 -16 -15 -2 7 2 18 8 26 18 22 21 18 8 -11z m170 -54 c-2 -7 -10 1 -17 16 -12 27 -11 28 4 12 10 -9 16 -21 13 -28z m29 8 c-3 -7 -5 -2 -5 12 0 14 2 19 5 13 2 -7 2 -19 0 -25z m-1600 5 c-4 -3 -7 0 -7 7 0 7 3 10 7 7 3 -4 3 -10 0 -14z m1363 -43 l-11 -25 6 25 c2 14 5 34 6 45 2 19 2 19 6 0 2 -12 -1 -32 -7 -45z m-993 33 c-4 -3 -10 -3 -14 0 -3 4 0 7 7 7 7 0 10 -3 7 -7z m18 -23 c3 -5 1 -10 -4 -10 -6 0 -11 5 -11 10 0 6 2 10 4 10 3 0 8 -4 11 -10z m-28 -7 c-4 -3 -10 -3 -14 0 -3 4 0 7 7 7 7 0 10 -3 7 -7z m754 -26 c-8 -8 -11 -7 -11 4 0 20 13 34 18 19 3 -7 -1 -17 -7 -23z m-521 8 c0 -8 -9 -15 -20 -15 -22 0 -27 15 -7 23 21 9 27 7 27 -8z m995 5 c3 -5 4 -10 1 -10 -3 0 -8 5 -11 10 -3 6 -4 10 -1 10 3 0 8 -4 11 -10z m-448 -17 c-4 -3 -7 0 -7 7 0 7 3 10 7 7 3 -4 3 -10 0 -14z m205 -15 c-7 -7 -12 -21 -12 -32 0 -10 -3 -17 -6 -13 -10 10 5 57 18 57 9 0 9 -3 0 -12z m272 -33 c7 -34 -7 -15 -19 25 -5 16 -4 22 3 15 5 -5 12 -23 16 -40z m-1067 18 c-4 -3 -7 0 -7 7 0 7 3 10 7 7 3 -4 3 -10 0 -14z m50 -15 c-3 -7 -5 -2 -5 12 0 14 2 19 5 13 2 -7 2 -19 0 -25z m248 2 c30 -8 30 -8 4 -9 -30 -1 -43 -23 -33 -54 4 -12 2 -17 -4 -13 -6 4 -8 -2 -5 -14 3 -11 1 -20 -5 -20 -12 0 -32 61 -32 98 0 24 17 27 75 12z m-230 -30 c3 -5 1 -10 -4 -10 -6 0 -11 5 -11 10 0 6 2 10 4 10 3 0 8 -4 11 -10z m232 3 c-4 -3 -10 -3 -14 0 -3 4 0 7 7 7 7 0 10 -3 7 -7z m42 0 c0 -5 -5 -17 -10 -28 -9 -19 -9 -19 -5 2 2 12 -1 24 -8 27 -6 2 -3 5 7 5 9 1 17 -2 16 -6z m568 -40 c-4 -3 -7 0 -7 7 0 7 3 10 7 7 3 -4 3 -10 0 -14z m30 -20 c-4 -3 -7 0 -7 7 0 7 3 10 7 7 3 -4 3 -10 0 -14z m-618 -20 c0 -10 -4 -27 -9 -38 -6 -16 -8 -12 -8 18 1 20 5 37 10 37 4 0 8 -8 7 -17z m595 2 c3 -8 1 -15 -4 -15 -6 0 -10 7 -10 15 0 8 2 15 4 15 2 0 6 -7 10 -15z m-840 -10 c-4 -8 -11 -15 -16 -15 -6 0 -5 6 2 15 7 8 14 15 16 15 2 0 1 -7 -2 -15z m206 -11 c0 -8 -19 -13 -24 -6 -3 5 1 9 9 9 8 0 15 -2 15 -3z m708 -65 c-3 -8 -7 -3 -11 10 -4 17 -3 21 5 13 5 -5 8 -16 6 -23z m-691 -1 c-3 -8 -6 -5 -6 6 -1 11 2 17 5 13 3 -3 4 -12 1 -19z m-476 -11 c-10 -9 -11 -8 -5 6 3 10 9 15 12 12 3 -3 0 -11 -7 -18z m296 -29 c-3 -8 -6 -5 -6 6 -1 11 2 17 5 13 3 -3 4 -12 1 -19z m853 2 c0 -5 -2 -10 -4 -10 -3 0 -8 5 -11 10 -3 6 -1 10 4 10 6 0 11 -4 11 -10z m37 -22 c-3 -7 -5 -2 -5 12 0 14 2 19 5 13 2 -7 2 -19 0 -25z m-400 -25 c-3 -10 -5 -2 -5 17 0 19 2 27 5 18 2 -10 2 -26 0 -35z m-1110 20 c-4 -3 -7 0 -7 7 0 7 3 10 7 7 3 -4 3 -10 0 -14z m630 -10 c-4 -3 -7 0 -7 7 0 7 3 10 7 7 3 -4 3 -10 0 -14z m-602 -23 c3 -5 4 -10 1 -10 -3 0 -8 5 -11 10 -3 6 -4 10 -1 10 3 0 8 -4 11 -10z m1472 -7 c-4 -3 -10 -3 -14 0 -3 4 0 7 7 7 7 0 10 -3 7 -7z m-1470 -20 c-4 -3 -10 -3 -14 0 -3 4 0 7 7 7 7 0 10 -3 7 -7z m30 0 c-4 -3 -10 -3 -14 0 -3 4 0 7 7 7 7 0 10 -3 7 -7z m1030 1 c-3 -3 -12 -4 -19 -1 -8 3 -5 6 6 6 11 1 17 -2 13 -5z"/>
<path d="M6134 674 c-33 -27 -43 -31 -47 -20 -4 10 -1 13 9 9 17 -6 19 8 3 24 -8 8 -19 2 -40 -22 l-30 -33 25 -27 c14 -15 30 -24 36 -20 7 4 10 1 9 -6 -2 -8 12 -29 30 -48 l32 -34 -65 -66 c-71 -71 -79 -86 -43 -76 17 5 19 4 7 -4 -13 -9 -12 -13 6 -30 21 -19 38 -17 45 7 3 9 13 6 34 -12 17 -14 32 -26 35 -26 3 0 51 46 107 103 l102 102 -106 108 c-58 59 -107 107 -107 107 -1 -1 -20 -17 -42 -36z m-19 -74 c3 -5 4 -10 1 -10 -3 0 -8 5 -11 10 -3 6 -4 10 -1 10 3 0 8 -4 11 -10z m99 -96 c3 -8 2 -12 -4 -9 -6 3 -10 10 -10 16 0 14 7 11 14 -7z m-37 -21 c-4 -3 -7 0 -7 7 0 7 3 10 7 7 3 -4 3 -10 0 -14z m-17 -48 c-24 -25 -50 -45 -56 -45 -7 0 -14 -6 -17 -12 -2 -7 -8 -10 -12 -6 -11 11 4 28 25 28 13 0 25 12 34 35 15 36 30 50 19 18 -5 -14 -1 -13 18 5 42 40 34 23 -11 -23z m-63 -92 c-4 -3 -7 0 -7 7 0 7 3 10 7 7 3 -4 3 -10 0 -14z"/>
</g>
<g id="layer109" fill="#6c5e5c" stroke="none">
<path d="M637 1093 c-16 -3 -45 -23 -72 -51 l-44 -47 139 -140 c87 -87 140 -148 140 -160 0 -12 -21 -40 -47 -64 -130 -120 -163 -154 -163 -170 0 -9 23 -39 50 -66 43 -43 53 -48 69 -38 14 9 22 8 34 -4 14 -14 31 -1 179 137 90 85 169 165 176 178 8 13 11 34 8 47 -3 13 -90 104 -193 204 -199 193 -189 187 -276 174z"/>
<path d="M550 805 c-10 -12 -16 -13 -26 -4 -17 14 -22 11 -133 -96 -133 -127 -212 -208 -223 -228 -14 -26 13 -57 212 -248 169 -162 172 -164 219 -166 46 -3 50 -1 90 46 22 27 41 53 41 57 0 5 -61 69 -135 144 -74 75 -135 143 -135 151 0 8 50 62 111 121 86 82 110 110 105 125 -3 11 -30 40 -60 66 -46 40 -56 44 -66 32z"/>
</g>
<g id="layer110" fill="#66625f" stroke="none">
<path d="M647 1093 c-29 -3 -47 -15 -82 -51 l-44 -47 139 -140 c87 -87 140 -148 140 -160 0 -12 -21 -40 -47 -64 -130 -120 -163 -154 -163 -170 0 -9 23 -39 50 -66 43 -43 53 -48 69 -38 14 9 22 8 34 -4 14 -14 31 -1 179 137 90 85 169 165 176 178 8 13 11 34 8 47 -9 35 -375 385 -400 383 -12 -1 -38 -3 -59 -5z"/>
<path d="M5643 848 c2 -13 7 -32 11 -43 3 -11 -2 -3 -12 17 -9 21 -23 38 -30 38 -10 0 -10 -5 -2 -20 7 -12 7 -20 1 -20 -5 0 -13 9 -16 20 -3 11 -10 20 -15 20 -5 0 5 -37 21 -82 17 -46 40 -110 51 -143 27 -77 37 -97 60 -113 10 -7 18 -18 18 -24 0 -7 -7 -3 -16 8 -15 19 -15 19 -11 -1 15 -57 55 -154 62 -147 5 4 5 1 1 -6 -4 -7 3 -39 16 -72 20 -52 26 -60 49 -60 23 0 26 4 23 28 -3 24 -2 24 8 -5 6 -18 17 -33 24 -34 105 -4 159 1 158 13 -2 10 -96 270 -220 606 l-16 42 -85 0 c-83 0 -85 -1 -80 -22z m27 -108 c0 -5 -4 -10 -10 -10 -5 0 -10 5 -10 10 0 6 5 10 10 10 6 0 10 -4 10 -10z m17 -27 c-4 -3 -7 0 -7 7 0 7 3 10 7 7 3 -4 3 -10 0 -14z m22 -58 c0 -5 -4 -3 -9 5 -5 8 -9 22 -9 30 0 16 17 -16 18 -35z m-42 -7 c-3 -8 -6 -5 -6 6 -1 11 2 17 5 13 3 -3 4 -12 1 -19z m63 -41 c0 -5 -4 -5 -10 -2 -5 3 -10 14 -10 23 0 15 2 15 10 2 5 -8 10 -19 10 -23z m25 -85 c-5 -5 -25 43 -25 61 1 7 7 -3 16 -22 8 -19 12 -36 9 -39z m-45 48 c0 -5 -4 -10 -10 -10 -5 0 -10 5 -10 10 0 6 5 10 10 10 6 0 10 -4 10 -10z m57 -77 c-4 -3 -7 0 -7 7 0 7 3 10 7 7 3 -4 3 -10 0 -14z m57 -143 c4 -15 -2 -9 -14 14 -11 22 -20 44 -20 50 1 15 26 -33 34 -64z m11 -110 c3 -5 -1 -10 -9 -10 -9 0 -16 5 -16 10 0 6 4 10 9 10 6 0 13 -4 16 -10z"/>
<path d="M494 758 c-140 -123 -258 -242 -276 -277 -12 -24 -18 -29 -18 -16 0 24 94 145 113 145 4 0 20 12 35 28 15 15 60 56 100 91 69 60 85 81 62 81 -17 0 -323 -299 -341 -332 -15 -27 11 -58 211 -249 168 -161 171 -163 219 -166 47 -2 49 -1 90 47 22 26 41 52 41 56 0 5 -61 69 -135 144 -74 75 -135 143 -135 151 0 8 50 62 111 121 86 82 110 110 105 125 -3 11 -30 40 -60 66 l-53 46 -69 -61z m73 -684 c-5 -5 -357 344 -357 354 0 4 81 -73 180 -172 100 -98 179 -180 177 -182z"/>
<path d="M1645 780 c-12 -4 -27 -15 -34 -24 -10 -11 -18 -13 -32 -6 -14 8 -25 3 -54 -27 -24 -25 -33 -42 -29 -52 4 -9 6 -27 5 -41 -1 -14 -2 -76 -2 -137 -1 -81 -4 -113 -13 -113 -6 0 -37 26 -69 58 l-58 58 71 68 c70 68 82 86 56 86 -8 0 -23 11 -34 25 -24 30 -43 32 -67 5 -17 -19 -20 -19 -36 -4 -17 16 -23 12 -104 -67 -48 -46 -91 -91 -95 -100 -13 -23 177 -213 195 -196 10 9 10 14 1 19 -8 6 -8 8 1 8 6 0 25 -12 42 -26 l31 -26 40 36 c22 20 41 36 43 36 2 0 1 -15 -1 -33 -3 -27 3 -38 36 -69 49 -45 71 -49 290 -48 l163 1 39 42 c36 38 40 47 40 94 l0 53 -57 0 c-32 0 -81 -3 -108 -6 -44 -6 -51 -9 -53 -30 -1 -13 4 -24 11 -25 23 -2 -38 -17 -74 -18 -63 -2 -69 15 -69 180 0 100 4 149 12 157 22 22 71 14 105 -18 23 -22 43 -30 70 -31 37 -2 37 -2 -12 -11 -27 -5 -69 -11 -92 -14 l-43 -6 0 -49 0 -50 38 0 c20 -1 91 -2 157 -3 l120 -1 3 158 3 157 -66 0 c-52 0 -65 -3 -65 -16 0 -14 -2 -14 -22 0 -17 13 -49 16 -143 15 -66 0 -129 -4 -140 -9z m-73 -62 c-8 -8 -13 -75 -14 -217 l-3 -206 -2 203 c-2 134 0 210 8 223 6 11 13 18 17 15 3 -4 0 -12 -6 -18z m-35 -80 c-3 -7 -5 -2 -5 12 0 14 2 19 5 13 2 -7 2 -19 0 -25z m343 18 c0 -2 -7 -6 -15 -10 -8 -3 -15 -1 -15 4 0 6 7 10 15 10 8 0 15 -2 15 -4z m-540 -9 c0 -2 -15 -16 -32 -33 l-33 -29 29 33 c28 30 36 37 36 29z m565 -17 c3 -5 -1 -10 -9 -10 -9 0 -16 5 -16 10 0 6 4 10 9 10 6 0 13 -4 16 -10z m-665 -85 c-23 -24 -40 -20 -40 10 0 6 5 3 10 -5 8 -13 11 -13 27 3 27 27 29 20 3 -8z m-40 -25 c0 -5 -7 -10 -16 -10 -8 0 -12 5 -9 10 3 6 10 10 16 10 5 0 9 -4 9 -10z m46 -75 c26 -25 43 -45 38 -45 -6 0 -30 20 -54 45 -24 25 -41 45 -38 45 3 0 27 -20 54 -45z m288 -57 c-3 -4 -9 -8 -15 -8 -5 0 -9 4 -9 8 0 5 7 9 15 9 8 0 12 -4 9 -9z m-224 -8 c0 -5 -4 -10 -10 -10 -5 0 -10 5 -10 10 0 6 5 10 10 10 6 0 10 -4 10 -10z m577 -7 c-4 -3 -10 -3 -14 0 -3 4 0 7 7 7 7 0 10 -3 7 -7z m23 -28 c-7 -8 -17 -15 -22 -15 -6 0 -5 7 2 15 7 8 17 15 22 15 6 0 5 -7 -2 -15z m-373 -22 c-4 -3 -7 0 -7 7 0 7 3 10 7 7 3 -4 3 -10 0 -14z m73 -80 c12 -11 10 -13 -9 -13 -12 0 -20 4 -16 9 3 5 1 12 -5 16 -5 3 -10 12 -10 18 1 8 5 7 13 -3 7 -8 19 -21 27 -27z"/>
<path d="M2193 783 l-43 -4 0 -279 c0 -244 2 -279 16 -284 27 -10 42 -7 47 12 4 16 5 16 6 0 1 -16 12 -18 81 -18 l80 0 0 224 0 223 112 5 c116 6 161 -3 151 -29 -3 -7 1 -33 10 -56 8 -23 27 -89 43 -147 26 -97 28 -103 36 -72 5 17 13 32 18 32 6 0 10 8 11 18 0 14 2 14 9 -3 12 -27 12 -43 0 -25 -8 13 -10 12 -10 -3 0 -10 -4 -16 -9 -13 -14 9 -18 -49 -7 -98 10 -43 11 -44 56 -50 61 -8 274 -7 281 2 3 4 32 99 64 212 32 113 63 212 69 221 8 12 10 -44 8 -206 l-3 -222 47 -7 c26 -3 81 -6 123 -6 l76 0 50 90 c27 50 52 90 55 90 3 0 5 -33 4 -72 0 -40 1 -79 3 -85 7 -19 53 -16 53 3 0 8 5 12 10 9 6 -4 7 -11 4 -17 -11 -18 11 -23 80 -20 l66 4 0 290 0 291 -87 -7 c-139 -10 -132 -7 -164 -65 -16 -30 -26 -59 -22 -65 3 -6 2 -8 -2 -3 -5 4 -23 -19 -41 -50 l-33 -58 -1 122 0 121 -176 0 c-195 1 -182 5 -199 -72 -9 -43 -14 -27 -6 20 7 39 7 41 -19 41 -24 0 -29 -6 -39 -49 -14 -54 -29 -62 -102 -56 l-43 4 -15 56 -15 57 -295 -1 c-163 -1 -315 -3 -338 -5z m-6 -19 c-3 -3 -12 -4 -19 -1 -8 3 -5 6 6 6 11 1 17 -2 13 -5z m30 -1 c-4 -3 -10 -3 -14 0 -3 4 0 7 7 7 7 0 10 -3 7 -7z m453 -18 c0 -14 -2 -25 -4 -25 -2 0 -6 11 -8 25 -3 14 -1 25 3 25 5 0 9 -11 9 -25z m600 16 c0 -6 -4 -13 -10 -16 -5 -3 -10 1 -10 9 0 9 5 16 10 16 6 0 10 -4 10 -9z m17 -28 c-3 -10 -5 -4 -5 12 0 17 2 24 5 18 2 -7 2 -21 0 -30z m337 22 c-4 -8 -11 -15 -16 -15 -6 0 -5 6 2 15 7 8 14 15 16 15 2 0 1 -7 -2 -15z m-376 -50 c-1 -14 -6 -25 -10 -25 -10 0 -10 13 -2 34 9 23 14 19 12 -9z m346 -5 c-10 -16 -20 -28 -22 -26 -4 5 28 56 35 56 2 0 -4 -13 -13 -30z m-922 -30 c6 -37 -7 -27 -16 13 -4 17 -3 26 2 23 6 -3 12 -19 14 -36z m352 25 c3 -8 1 -15 -4 -15 -6 0 -10 7 -10 15 0 8 2 15 4 15 2 0 6 -7 10 -15z m-325 -45 c0 -9 -4 -8 -9 5 -5 11 -9 27 -9 35 0 9 4 8 9 -5 5 -11 9 -27 9 -35z m578 23 c-4 -3 -7 0 -7 7 0 7 3 10 7 7 3 -4 3 -10 0 -14z m280 0 c-4 -3 -10 -3 -14 0 -3 4 0 7 7 7 7 0 10 -3 7 -7z m-297 -13 c0 -5 -5 -10 -11 -10 -5 0 -7 5 -4 10 3 6 8 10 11 10 2 0 4 -4 4 -10z m294 -30 c-10 -16 -20 -28 -22 -26 -4 5 28 56 35 56 2 0 -4 -13 -13 -30z m-847 -17 c-4 -3 -7 0 -7 7 0 7 3 10 7 7 3 -4 3 -10 0 -14z m543 13 c0 -3 -5 -8 -12 -12 -7 -4 -8 -3 -4 4 7 12 16 16 16 8z m-533 -43 c-4 -3 -7 0 -7 7 0 7 3 10 7 7 3 -4 3 -10 0 -14z m787 -43 c-24 -49 -44 -71 -44 -51 0 6 4 11 9 11 5 0 13 10 17 23 7 22 33 67 40 67 2 0 -8 -22 -22 -50z m-17 23 c-4 -3 -7 0 -7 7 0 7 3 10 7 7 3 -4 3 -10 0 -14z m-534 -23 c14 -17 14 -20 2 -20 -8 0 -15 -4 -15 -10 0 -5 5 -10 11 -10 5 0 7 -5 4 -10 -4 -6 -11 -8 -16 -5 -5 4 -9 -6 -9 -21 0 -16 -4 -24 -8 -18 -9 10 -32 84 -32 103 0 19 44 12 63 -9z m54 4 c-3 -3 -12 -4 -19 -1 -8 3 -5 6 6 6 11 1 17 -2 13 -5z m-20 -41 c-4 -3 -7 0 -7 7 0 7 3 10 7 7 3 -4 3 -10 0 -14z m9 -39 c-8 -21 -15 -31 -15 -22 -1 18 20 70 26 65 2 -2 -3 -21 -11 -43z m623 -25 c-31 -27 -34 -24 -10 10 12 16 22 35 22 43 1 7 4 3 6 -10 3 -16 -3 -30 -18 -43z m-860 1 c0 -9 -4 -8 -9 5 -5 11 -9 27 -9 35 0 9 4 8 9 -5 5 -11 9 -27 9 -35z m698 23 c-4 -3 -10 -3 -14 0 -3 4 0 7 7 7 7 0 10 -3 7 -7z m-509 -88 c0 -16 -2 -15 -8 5 -11 34 -11 60 0 35 5 -11 8 -29 8 -40z m689 -78 c-2 -23 -3 -1 -3 48 0 50 1 68 3 42 2 -26 2 -67 0 -90z m-666 62 c-5 -13 -10 -19 -10 -12 -1 15 10 45 15 40 3 -2 0 -15 -5 -28z m626 14 c-4 -3 -7 0 -7 7 0 7 3 10 7 7 3 -4 3 -10 0 -14z m-820 -45 c-3 -8 -6 -5 -6 6 -1 11 2 17 5 13 3 -3 4 -12 1 -19z m-9 -32 c-7 -8 -15 -12 -17 -11 -5 6 10 25 20 25 5 0 4 -6 -3 -14z m499 -8 c-3 -8 -6 -5 -6 6 -1 11 2 17 5 13 3 -3 4 -12 1 -19z m-460 -5 c-4 -3 -7 0 -7 7 0 7 3 10 7 7 3 -4 3 -10 0 -14z m13 -38 c0 -10 -9 -15 -27 -14 -24 2 -25 2 -5 6 12 2 22 9 22 14 0 5 2 9 5 9 3 0 5 -7 5 -15z m777 -12 c-4 -3 -7 0 -7 7 0 7 3 10 7 7 3 -4 3 -10 0 -14z m-1400 0 c-4 -3 -10 -3 -14 0 -3 4 0 7 7 7 7 0 10 -3 7 -7z m1093 -3 c0 -5 -2 -10 -4 -10 -3 0 -8 5 -11 10 -3 6 -1 10 4 10 6 0 11 -4 11 -10z"/>
<path d="M3934 768 c-39 -30 -58 -57 -65 -93 l-6 -30 -1 35 c-1 36 18 67 53 88 19 11 19 11 -5 12 -18 0 -38 -14 -68 -47 l-42 -48 1 -191 1 -191 45 -44 46 -44 187 -4 188 -3 43 41 c37 37 43 48 47 95 3 33 0 56 -7 60 -6 4 -40 9 -76 10 -52 3 -67 0 -75 -13 -6 -10 -10 -11 -10 -3 0 6 -9 12 -20 12 -21 0 -44 -33 -37 -53 5 -16 -23 -36 -50 -37 -47 0 -53 20 -53 179 0 101 4 151 12 159 7 7 29 12 49 12 41 0 53 -16 43 -56 -6 -22 -3 -24 25 -24 17 0 31 5 31 10 0 6 5 10 10 10 6 0 9 -6 8 -12 -2 -9 18 -14 68 -16 l71 -3 29 -99 c16 -54 33 -96 38 -93 5 4 7 -1 3 -12 -4 -9 2 -48 15 -85 17 -55 26 -69 45 -73 13 -2 23 0 23 4 0 5 -9 9 -20 9 -11 0 -20 4 -20 9 0 5 -3 18 -6 28 -5 13 -2 12 10 -4 10 -13 26 -23 37 -23 10 0 19 -6 19 -14 0 -20 15 -21 145 -18 l112 3 42 147 c24 81 50 172 58 202 8 30 24 70 34 90 15 25 18 28 13 10 -8 -32 -8 -40 -6 -257 l2 -183 25 0 c16 0 25 6 25 16 0 8 4 13 10 9 5 -3 7 -12 4 -19 -7 -18 12 -22 95 -18 l66 4 24 61 c13 33 37 91 53 127 l30 65 14 -39 c8 -22 25 -62 38 -90 13 -28 31 -68 39 -88 13 -30 21 -38 41 -38 31 0 31 1 6 50 -11 22 -20 47 -19 57 0 10 12 -10 26 -44 l27 -63 78 0 78 0 0 290 0 290 -49 0 c-26 0 -75 -3 -109 -6 l-61 -7 -4 -41 -3 -41 -14 33 c-13 28 -19 32 -52 32 -20 0 -39 -4 -42 -8 -2 -4 -21 -7 -41 -7 -32 2 -38 -2 -53 -34 l-17 -36 -3 58 -3 58 -72 -3 -72 -3 -6 -40 -6 -40 -2 37 c-1 34 -4 38 -37 44 -20 4 -71 4 -113 0 -42 -4 -84 -7 -94 -7 -19 0 -37 -35 -37 -74 0 -19 -7 -25 -33 -30 -18 -4 -49 -5 -68 -3 -31 3 -35 7 -47 48 -8 25 -15 51 -18 58 -5 18 -141 16 -177 -3 -26 -13 -31 -13 -50 0 -17 12 -55 15 -178 15 -146 0 -158 -1 -185 -22z m833 -15 c-4 -3 -7 0 -7 7 0 7 3 10 7 7 3 -4 3 -10 0 -14z m184 -10 c-8 -15 -10 -15 -11 -2 0 17 10 32 18 25 2 -3 -1 -13 -7 -23z m-604 0 c-4 -3 -10 -3 -14 0 -3 4 0 7 7 7 7 0 10 -3 7 -7z m31 -73 l0 -35 -8 35 c-4 19 -8 40 -10 45 -1 6 -1 17 0 25 3 25 18 -32 18 -70z m350 66 c-7 -8 -15 -12 -17 -11 -5 6 10 25 20 25 5 0 4 -6 -3 -14z m29 -28 c-3 -7 -5 -2 -5 12 0 14 2 19 5 13 2 -7 2 -19 0 -25z m461 -4 c-7 -15 -14 -21 -16 -15 -2 7 2 18 8 26 18 22 21 18 8 -11z m219 -1 c-4 -3 -7 0 -7 7 0 7 3 10 7 7 3 -4 3 -10 0 -14z m-500 -10 c-4 -3 -7 0 -7 7 0 7 3 10 7 7 3 -4 3 -10 0 -14z m451 -43 c-2 -7 -10 1 -17 16 -12 27 -11 28 4 12 10 -9 16 -21 13 -28z m29 8 c-3 -7 -5 -2 -5 12 0 14 2 19 5 13 2 -7 2 -19 0 -25z m-1600 5 c-4 -3 -7 0 -7 7 0 7 3 10 7 7 3 -4 3 -10 0 -14z m1363 -43 l-11 -25 6 25 c2 14 5 34 6 45 2 19 2 19 6 0 2 -12 -1 -32 -7 -45z m-980 20 c7 -14 7 -20 0 -20 -5 0 -10 6 -10 14 0 8 -6 17 -12 19 -10 4 -10 6 -1 6 7 1 17 -8 23 -19z m740 -21 c-11 -38 -20 -49 -20 -25 0 17 17 56 25 56 2 0 0 -14 -5 -31z m217 9 c-3 -8 -6 -5 -6 6 -1 11 2 17 5 13 3 -3 4 -12 1 -19z m-980 -5 c-4 -3 -10 -3 -14 0 -3 4 0 7 7 7 7 0 10 -3 7 -7z m233 -18 c0 -8 -9 -15 -20 -15 -20 0 -26 11 -13 23 12 13 33 7 33 -8z m995 5 c3 -5 4 -10 1 -10 -3 0 -8 5 -11 10 -3 6 -4 10 -1 10 3 0 8 -4 11 -10z m-448 -17 c-4 -3 -7 0 -7 7 0 7 3 10 7 7 3 -4 3 -10 0 -14z m205 -15 c-7 -7 -12 -21 -12 -32 0 -10 -3 -17 -6 -13 -10 10 5 57 18 57 9 0 9 -3 0 -12z m272 -33 c7 -34 -7 -15 -19 25 -5 16 -4 22 3 15 5 -5 12 -23 16 -40z m-1067 18 c-4 -3 -7 0 -7 7 0 7 3 10 7 7 3 -4 3 -10 0 -14z m69 -71 c-10 -9 -13 0 -20 48 l-6 45 16 -43 c8 -24 13 -46 10 -50z m229 58 l30 -8 -27 -1 c-16 0 -28 -2 -29 -3 0 -2 -3 -29 -5 -61 -3 -38 -1 -56 6 -52 5 3 10 1 10 -4 0 -6 -4 -11 -10 -11 -12 0 -35 44 -44 85 -4 17 -9 38 -12 48 -4 13 0 17 23 16 15 -1 42 -5 58 -9z m40 -41 c-9 -19 -14 -24 -12 -12 3 12 0 24 -7 27 -6 2 -3 5 7 5 9 1 17 6 17 13 0 6 2 9 5 6 3 -3 -2 -20 -10 -39z m-38 14 c-4 -3 -10 -3 -14 0 -3 4 0 7 7 7 7 0 10 -3 7 -7z m633 -28 c0 -5 -5 -3 -10 5 -5 8 -10 20 -10 25 0 6 5 3 10 -5 5 -8 10 -19 10 -25z m-23 -17 c-3 -8 -6 -5 -6 6 -1 11 2 17 5 13 3 -3 4 -12 1 -19z m57 -58 c5 -19 2 -16 -13 10 -11 19 -20 39 -21 45 0 16 27 -28 34 -55z m-875 0 c0 -9 -4 -8 -9 5 -5 11 -9 14 -9 8 -1 -7 -5 -13 -10 -13 -5 0 -4 11 2 25 10 21 13 22 19 7 4 -9 7 -24 7 -32z m230 23 c0 -10 -4 -27 -9 -38 -6 -16 -8 -12 -8 18 1 20 5 37 10 37 4 0 8 -8 7 -17z m601 -16 c0 -5 -4 -5 -10 -2 -5 3 -10 14 -10 23 0 15 2 15 10 2 5 -8 10 -19 10 -23z m80 -80 c0 -16 -18 3 -23 25 -6 22 -5 22 8 4 8 -11 15 -24 15 -29z m-703 11 c-3 -8 -6 -5 -6 6 -1 11 2 17 5 13 3 -3 4 -12 1 -19z m-476 -11 c-10 -9 -11 -8 -5 6 3 10 9 15 12 12 3 -3 0 -11 -7 -18z m296 -29 c-3 -8 -6 -5 -6 6 -1 11 2 17 5 13 3 -3 4 -12 1 -19z m-580 -62 c32 -28 30 -36 -7 -25 -15 4 -18 7 -8 8 14 1 13 5 -7 26 -14 13 -25 34 -24 47 1 21 1 21 9 -4 4 -15 21 -38 37 -52z m1433 64 c0 -5 -2 -10 -4 -10 -3 0 -8 5 -11 10 -3 6 -1 10 4 10 6 0 11 -4 11 -10z m-893 -17 c-4 -3 -7 0 -7 7 0 7 3 10 7 7 3 -4 3 -10 0 -14z m530 -30 c-3 -10 -5 -2 -5 17 0 19 2 27 5 18 2 -10 2 -26 0 -35z m-480 10 c-4 -3 -7 0 -7 7 0 7 3 10 7 7 3 -4 3 -10 0 -14z m870 -30 c-4 -3 -10 -3 -14 0 -3 4 0 7 7 7 7 0 10 -3 7 -7z m-410 -19 c-3 -3 -12 -4 -19 -1 -8 3 -5 6 6 6 11 1 17 -2 13 -5z"/>
<path d="M6133 673 c-26 -21 -43 -30 -43 -22 0 11 -2 11 -11 -1 -9 -13 -10 -13 -6 0 2 8 11 14 21 12 18 -3 22 13 5 24 -6 3 -25 -7 -41 -23 l-30 -30 27 -27 c14 -14 31 -24 36 -21 5 4 9 1 9 -6 0 -7 14 -28 32 -46 l32 -33 -67 -68 c-37 -37 -67 -71 -67 -75 0 -5 10 -5 23 -2 17 5 19 4 7 -5 -13 -9 -12 -12 4 -25 26 -20 44 -19 48 1 2 14 9 12 36 -11 l34 -28 104 104 104 104 -107 108 c-58 59 -107 107 -107 107 -1 -1 -20 -17 -43 -37z m1 -93 c12 -20 15 -31 7 -29 -7 3 -11 7 -9 11 2 3 -8 19 -22 34 -14 15 -19 25 -10 22 8 -3 24 -20 34 -38z m61 -52 c29 -25 34 -44 6 -27 -18 12 -46 49 -36 49 3 0 16 -10 30 -22z m-18 -45 c-4 -3 -7 0 -7 7 0 7 3 10 7 7 3 -4 3 -10 0 -14z m-17 -48 c-24 -25 -50 -45 -56 -45 -7 0 -14 -6 -17 -12 -2 -7 -8 -10 -12 -6 -11 11 4 28 25 28 13 0 25 12 34 35 15 36 30 50 19 18 -5 -14 -1 -13 18 5 42 40 34 23 -11 -23z m-63 -92 c-4 -3 -7 0 -7 7 0 7 3 10 7 7 3 -4 3 -10 0 -14z"/>
</g>
<g id="layer111" fill="#9b5c39" stroke="none">
<path d="M647 1093 c-29 -3 -47 -15 -82 -51 l-44 -47 139 -140 c91 -91 140 -148 140 -161 0 -14 -33 -51 -99 -110 -55 -49 -103 -100 -107 -113 -5 -19 2 -32 45 -74 44 -45 54 -50 70 -40 14 9 21 8 34 -4 14 -14 31 -1 179 137 90 85 169 165 176 178 8 13 11 34 8 47 -9 35 -375 385 -400 383 -12 -1 -38 -3 -59 -5z"/>
<path d="M494 758 c-112 -99 -251 -234 -269 -262 -10 -15 -15 -35 -11 -49 3 -12 84 -100 181 -195 96 -95 175 -176 175 -179 0 -4 -15 6 -32 23 -70 63 -91 76 -42 26 45 -48 56 -54 100 -58 50 -4 51 -4 92 45 23 27 42 53 42 57 0 5 -61 69 -135 144 -74 75 -135 143 -135 151 0 8 50 62 111 121 86 82 110 110 105 125 -3 11 -30 40 -60 66 l-53 46 -69 -61z"/>
</g>
<g id="layer112" fill="#676767" stroke="none">
<path d="M647 1093 c-29 -3 -47 -15 -82 -51 l-44 -47 139 -140 c91 -91 140 -148 140 -161 0 -14 -33 -51 -99 -110 -55 -49 -103 -100 -107 -113 -5 -19 2 -32 45 -74 45 -46 53 -50 71 -40 15 10 22 10 34 -3 14 -14 32 0 178 137 164 154 187 180 188 211 0 35 -374 399 -407 396 -10 -1 -35 -3 -56 -5z"/>
<path d="M5643 848 c2 -13 7 -32 11 -43 3 -11 -2 -3 -12 17 -9 21 -23 38 -30 38 -10 0 -10 -5 -2 -20 7 -12 7 -20 1 -20 -5 0 -13 9 -16 20 -3 11 -10 20 -15 20 -5 0 5 -37 21 -82 17 -46 41 -114 55 -153 13 -38 35 -81 49 -95 14 -14 25 -30 25 -35 0 -5 -7 0 -16 11 -15 19 -15 19 -11 -1 15 -57 55 -154 62 -147 5 4 5 1 1 -6 -4 -7 3 -39 16 -72 20 -52 26 -60 49 -60 23 0 26 4 23 28 -3 24 -2 24 8 -5 6 -18 17 -33 24 -34 105 -4 159 1 158 13 -2 10 -96 270 -220 606 l-16 42 -85 0 c-83 0 -85 -1 -80 -22z m27 -108 c0 -5 -4 -10 -10 -10 -5 0 -10 5 -10 10 0 6 5 10 10 10 6 0 10 -4 10 -10z m38 -85 c0 -5 -6 4 -13 20 -8 17 -14 37 -14 45 0 8 7 -1 14 -20 7 -19 13 -39 13 -45z m-41 -7 c-3 -8 -6 -5 -6 6 -1 11 2 17 5 13 3 -3 4 -12 1 -19z m63 -41 c0 -5 -4 -5 -10 -2 -5 3 -10 14 -10 23 0 15 2 15 10 2 5 -8 10 -19 10 -23z m25 -85 c-5 -5 -25 43 -25 61 1 7 7 -3 16 -22 8 -19 12 -36 9 -39z m-45 48 c0 -5 -4 -10 -10 -10 -5 0 -10 5 -10 10 0 6 5 10 10 10 6 0 10 -4 10 -10z m57 -77 c-4 -3 -7 0 -7 7 0 7 3 10 7 7 3 -4 3 -10 0 -14z m57 -143 c4 -15 -2 -9 -14 14 -11 22 -20 44 -20 50 1 15 26 -33 34 -64z m11 -110 c3 -5 -1 -10 -9 -10 -9 0 -16 5 -16 10 0 6 4 10 9 10 6 0 13 -4 16 -10z"/>
<path d="M494 758 c-112 -99 -251 -234 -269 -262 -10 -15 -15 -35 -11 -49 3 -12 84 -100 181 -195 96 -95 175 -176 175 -179 0 -4 -15 6 -32 23 -70 63 -91 76 -42 26 45 -48 56 -54 100 -58 50 -4 51 -4 92 45 23 27 42 53 42 57 0 4 -61 69 -135 144 -74 75 -135 140 -135 144 0 24 32 58 179 192 53 49 51 61 -23 126 l-53 47 -69 -61z"/>
<path d="M476 787 c-17 -14 -26 -28 -22 -35 5 -9 17 -3 37 17 46 46 35 58 -15 18z"/>
<path d="M1645 780 c-12 -4 -27 -15 -34 -24 -10 -11 -18 -13 -32 -6 -14 8 -25 3 -53 -26 -41 -42 -40 -38 -24 -63 9 -15 9 -26 1 -44 -7 -15 -10 -65 -7 -131 3 -82 1 -106 -9 -106 -7 0 -38 26 -70 58 l-58 58 71 68 c70 68 82 86 56 86 -8 0 -23 11 -34 25 -24 30 -43 32 -67 5 -17 -19 -19 -19 -37 -4 -17 16 -19 16 -38 -6 -11 -13 -20 -27 -20 -32 0 -4 -6 -8 -13 -8 -7 0 -41 -29 -76 -66 l-64 -65 98 -99 c74 -74 101 -95 110 -87 9 9 7 16 -9 30 -21 18 -20 18 9 1 17 -10 40 -27 52 -37 l22 -20 41 37 c22 20 41 36 43 36 2 0 1 -15 -1 -33 -3 -27 3 -38 36 -69 49 -45 71 -49 290 -48 l163 1 39 42 c36 38 40 47 40 94 l0 53 -57 0 c-32 0 -83 -3 -113 -7 -45 -5 -50 -8 -30 -14 24 -7 24 -7 3 -8 -24 -1 -33 -30 -10 -32 23 -2 -38 -17 -74 -18 -63 -2 -69 15 -69 180 0 100 4 149 12 157 22 22 71 14 105 -18 23 -22 43 -30 70 -31 37 -2 37 -2 -12 -11 -27 -5 -69 -11 -93 -14 l-43 -6 3 -47 c3 -45 4 -46 38 -50 19 -2 89 -4 155 -5 l120 -1 3 158 3 157 -66 0 c-52 0 -65 -3 -65 -16 0 -14 -2 -14 -22 0 -17 13 -49 16 -143 15 -66 0 -129 -4 -140 -9z m-73 -62 c-8 -8 -13 -75 -14 -217 l-3 -206 -2 203 c-2 134 0 210 8 223 6 11 13 18 17 15 3 -4 0 -12 -6 -18z m-35 -80 c-3 -7 -5 -2 -5 12 0 14 2 19 5 13 2 -7 2 -19 0 -25z m338 12 c-3 -5 -10 -10 -16 -10 -5 0 -9 5 -9 10 0 6 7 10 16 10 8 0 12 -4 9 -10z m-600 -70 c-38 -38 -78 -70 -88 -70 -10 0 -15 5 -12 11 4 6 14 8 22 5 11 -5 13 -1 8 17 -5 17 -4 19 4 7 9 -12 20 -5 68 43 32 31 60 57 63 57 2 0 -27 -31 -65 -70z m630 50 c3 -5 -1 -10 -9 -10 -9 0 -16 5 -16 10 0 6 4 10 9 10 6 0 13 -4 16 -10z m-659 -185 c26 -25 43 -45 38 -45 -6 0 -30 20 -54 45 -24 25 -41 45 -38 45 3 0 27 -20 54 -45z m288 -57 c-3 -4 -9 -8 -15 -8 -5 0 -9 4 -9 8 0 5 7 9 15 9 8 0 12 -4 9 -9z m-224 -8 c0 -5 -4 -10 -10 -10 -5 0 -10 5 -10 10 0 6 5 10 10 10 6 0 10 -4 10 -10z m600 -35 c-7 -8 -17 -15 -22 -15 -6 0 -5 7 2 15 7 8 17 15 22 15 6 0 5 -7 -2 -15z m-373 -22 c-4 -3 -7 0 -7 7 0 7 3 10 7 7 3 -4 3 -10 0 -14z m73 -80 c12 -11 10 -13 -9 -13 -12 0 -20 4 -16 9 3 5 1 12 -5 16 -5 3 -10 12 -10 18 1 8 5 7 13 -3 7 -8 19 -21 27 -27z"/>
<path d="M2193 783 l-43 -4 0 -279 c0 -244 2 -279 16 -284 27 -10 42 -7 47 12 4 16 5 16 6 0 1 -16 12 -18 81 -18 l80 0 0 224 0 223 112 5 c115 6 161 -3 151 -28 -3 -8 2 -35 11 -61 17 -54 38 -124 57 -198 l13 -49 8 32 c5 17 13 32 18 32 6 0 10 8 11 18 0 14 2 14 9 -3 12 -27 12 -43 0 -25 -8 13 -10 12 -10 -3 0 -10 -4 -16 -9 -13 -14 9 -18 -50 -7 -99 10 -41 13 -45 41 -44 29 1 29 1 5 9 -23 7 -23 8 -3 9 12 1 24 7 26 14 3 6 6 0 6 -15 1 -33 6 -34 149 -28 l115 5 61 210 c34 116 66 218 71 227 7 11 9 -54 7 -206 l-3 -223 47 -7 c26 -3 81 -6 123 -6 l76 0 49 90 c27 50 52 90 56 90 3 0 5 -33 5 -72 -2 -89 1 -98 31 -98 24 0 24 1 24 107 0 58 2 104 4 102 3 -3 6 -52 7 -109 1 -58 5 -107 9 -110 4 -3 38 -3 74 -2 l66 4 0 290 0 291 -87 -7 c-139 -10 -132 -7 -164 -65 -16 -30 -26 -59 -22 -65 3 -6 2 -8 -2 -3 -5 4 -23 -19 -41 -50 l-33 -58 -1 122 0 121 -176 0 c-195 1 -182 5 -199 -72 -9 -44 -14 -26 -5 22 4 23 3 42 -1 42 -5 0 -9 -5 -9 -11 0 -8 -5 -7 -15 1 -19 16 -19 16 -35 -43 -14 -53 -29 -61 -101 -55 l-43 4 -15 56 -15 57 -295 -1 c-163 -1 -315 -3 -338 -5z m-6 -19 c-3 -3 -12 -4 -19 -1 -8 3 -5 6 6 6 11 1 17 -2 13 -5z m30 -1 c-4 -3 -10 -3 -14 0 -3 4 0 7 7 7 7 0 10 -3 7 -7z m453 -18 c0 -14 -2 -25 -4 -25 -2 0 -6 11 -8 25 -3 14 -1 25 3 25 5 0 9 -11 9 -25z m600 16 c0 -6 -4 -13 -10 -16 -5 -3 -10 1 -10 9 0 9 5 16 10 16 6 0 10 -4 10 -9z m17 -28 c-3 -10 -5 -4 -5 12 0 17 2 24 5 18 2 -7 2 -21 0 -30z m337 22 c-4 -8 -10 -15 -15 -15 -4 0 -6 7 -3 15 4 8 10 15 15 15 4 0 6 -7 3 -15z m-376 -50 c-1 -14 -6 -25 -10 -25 -10 0 -10 13 -2 34 9 23 14 19 12 -9z m346 -5 c-10 -16 -20 -28 -22 -26 -4 5 28 56 35 56 2 0 -4 -13 -13 -30z m-922 -30 c6 -37 -7 -27 -16 13 -4 17 -3 26 2 23 6 -3 12 -19 14 -36z m352 25 c3 -8 1 -15 -4 -15 -6 0 -10 7 -10 15 0 8 2 15 4 15 2 0 6 -7 10 -15z m-325 -45 c0 -9 -4 -8 -9 5 -5 11 -9 27 -9 35 0 9 4 8 9 -5 5 -11 9 -27 9 -35z m578 23 c-4 -3 -7 0 -7 7 0 7 3 10 7 7 3 -4 3 -10 0 -14z m280 0 c-4 -3 -10 -3 -14 0 -3 4 0 7 7 7 7 0 10 -3 7 -7z m-297 -13 c0 -5 -5 -10 -11 -10 -5 0 -7 5 -4 10 3 6 8 10 11 10 2 0 4 -4 4 -10z m294 -30 c-10 -16 -20 -28 -22 -26 -4 5 28 56 35 56 2 0 -4 -13 -13 -30z m-847 -17 c-4 -3 -7 0 -7 7 0 7 3 10 7 7 3 -4 3 -10 0 -14z m543 13 c0 -3 -5 -8 -12 -12 -7 -4 -8 -3 -4 4 7 12 16 16 16 8z m-533 -43 c-4 -3 -7 0 -7 7 0 7 3 10 7 7 3 -4 3 -10 0 -14z m787 -43 c-24 -49 -44 -71 -44 -51 0 6 4 11 9 11 5 0 13 10 17 23 7 22 33 67 40 67 2 0 -8 -22 -22 -50z m-14 30 c0 -5 -2 -10 -4 -10 -3 0 -8 5 -11 10 -3 6 -1 10 4 10 6 0 11 -4 11 -10z m-537 -30 c14 -17 14 -20 2 -20 -8 0 -15 -5 -15 -11 0 -5 5 -7 11 -3 7 4 10 1 7 -7 -3 -8 -11 -13 -17 -11 -6 1 -11 -10 -11 -25 0 -15 -4 -23 -8 -17 -9 10 -32 84 -32 103 0 19 44 12 63 -9z m54 4 c-3 -3 -12 -4 -19 -1 -8 3 -5 6 6 6 11 1 17 -2 13 -5z m-20 -41 c-4 -3 -7 0 -7 7 0 7 3 10 7 7 3 -4 3 -10 0 -14z m9 -44 c-9 -19 -15 -26 -16 -17 0 21 23 74 27 61 2 -5 -3 -25 -11 -44z m623 -20 c-31 -27 -34 -24 -10 10 12 16 22 35 22 43 1 7 4 3 6 -10 3 -16 -3 -30 -18 -43z m-860 1 c0 -9 -4 -8 -9 5 -5 11 -9 27 -9 35 0 9 4 8 9 -5 5 -11 9 -27 9 -35z m698 23 c-4 -3 -10 -3 -14 0 -3 4 0 7 7 7 7 0 10 -3 7 -7z m-509 -88 c0 -16 -2 -15 -8 5 -11 34 -11 60 0 35 5 -11 8 -29 8 -40z m23 -16 c-5 -13 -10 -19 -10 -12 -1 15 10 45 15 40 3 -2 0 -15 -5 -28z m626 14 c-4 -3 -7 0 -7 7 0 7 3 10 7 7 3 -4 3 -10 0 -14z m-820 -45 c-3 -8 -6 -5 -6 6 -1 11 2 17 5 13 3 -3 4 -12 1 -19z m-9 -32 c-7 -8 -15 -12 -17 -11 -5 6 10 25 20 25 5 0 4 -6 -3 -14z m499 -8 c-3 -8 -6 -5 -6 6 -1 11 2 17 5 13 3 -3 4 -12 1 -19z m-460 -5 c-4 -3 -7 0 -7 7 0 7 3 10 7 7 3 -4 3 -10 0 -14z m483 -39 c0 -14 -4 -23 -9 -20 -5 3 -7 15 -4 26 7 28 13 25 13 -6z m307 -6 c-3 -8 -6 -5 -6 6 -1 11 2 17 5 13 3 -3 4 -12 1 -19z m-1400 -5 c-4 -3 -10 -3 -14 0 -3 4 0 7 7 7 7 0 10 -3 7 -7z"/>
<path d="M3934 768 c-39 -30 -58 -57 -65 -93 l-6 -30 -1 35 c-1 36 18 67 53 88 19 11 19 11 -5 12 -18 0 -38 -14 -68 -47 l-42 -48 1 -192 1 -192 34 -30 c18 -17 42 -31 53 -31 19 0 18 2 -4 25 -14 13 -25 34 -24 47 1 21 2 20 9 -5 5 -15 20 -37 34 -48 33 -26 33 -37 -1 -33 -28 4 -28 4 -3 -5 14 -4 102 -9 197 -10 l172 -2 42 41 c38 36 43 47 47 95 5 62 7 61 -81 68 -43 4 -61 2 -72 -9 -8 -9 -15 -11 -15 -5 0 6 -9 11 -20 11 -21 0 -44 -33 -37 -53 5 -16 -23 -36 -50 -37 -47 0 -53 20 -53 179 0 101 4 151 12 159 7 7 29 12 49 12 41 0 53 -16 43 -56 -5 -21 -3 -24 19 -24 14 0 29 5 32 10 9 14 25 12 23 -2 -2 -9 18 -14 69 -16 70 -3 72 -3 78 -33 4 -16 10 -27 15 -24 5 3 12 0 16 -6 4 -8 3 -9 -4 -5 -16 10 -15 -9 6 -77 10 -31 22 -54 27 -50 4 5 5 0 1 -11 -3 -10 3 -49 16 -86 17 -55 26 -69 45 -73 13 -2 23 0 23 4 0 5 -9 9 -20 9 -11 0 -20 4 -20 9 0 5 -3 18 -6 28 -5 13 -2 12 10 -4 10 -13 26 -23 37 -23 10 0 19 -6 19 -14 0 -20 15 -21 145 -18 l112 3 42 147 c24 81 50 172 58 202 8 30 24 70 34 90 15 25 18 28 13 10 -8 -32 -8 -40 -6 -257 l2 -183 25 0 c16 0 25 6 25 16 0 8 4 13 10 9 5 -3 7 -12 4 -19 -7 -18 12 -22 95 -18 l66 4 24 61 c13 33 37 91 53 127 l30 65 13 -35 c7 -19 31 -75 53 -125 34 -78 43 -90 66 -93 31 -4 32 -2 6 48 -11 22 -20 47 -19 57 0 10 12 -10 26 -44 l27 -63 78 0 78 0 0 290 0 290 -49 0 c-26 0 -75 -3 -109 -6 l-61 -7 -4 -41 -3 -41 -14 33 c-13 28 -19 32 -52 32 -20 0 -39 -4 -42 -8 -2 -4 -21 -7 -41 -7 -32 2 -38 -2 -53 -34 l-17 -36 -3 58 -3 58 -72 -3 -72 -3 -6 -40 -6 -40 -2 37 c-1 34 -4 38 -37 44 -20 4 -71 4 -113 0 -42 -4 -84 -7 -94 -7 -19 0 -37 -35 -37 -74 0 -19 -7 -25 -33 -30 -18 -4 -49 -5 -68 -3 -31 3 -35 7 -47 48 -8 25 -15 51 -18 58 -5 18 -141 16 -177 -3 -26 -13 -31 -13 -50 0 -17 12 -55 15 -178 15 -146 0 -158 -1 -185 -22z m830 -37 c-4 -17 -9 -30 -11 -27 -3 2 -2 19 2 36 9 41 17 33 9 -9z m187 12 c-8 -15 -10 -15 -11 -2 0 17 10 32 18 25 2 -3 -1 -13 -7 -23z m-604 0 c-4 -3 -10 -3 -14 0 -3 4 0 7 7 7 7 0 10 -3 7 -7z m31 -73 l0 -35 -8 35 c-4 19 -8 40 -10 45 -1 6 -1 17 0 25 3 25 18 -32 18 -70z m350 66 c-7 -8 -15 -12 -17 -11 -5 6 10 25 20 25 5 0 4 -6 -3 -14z m490 -32 c-7 -15 -14 -21 -16 -15 -2 7 2 18 8 26 18 22 21 18 8 -11z m219 -1 c-4 -3 -7 0 -7 7 0 7 3 10 7 7 3 -4 3 -10 0 -14z m-500 -10 c-4 -3 -7 0 -7 7 0 7 3 10 7 7 3 -4 3 -10 0 -14z m451 -43 c-2 -7 -10 1 -17 16 -12 27 -11 28 4 12 10 -9 16 -21 13 -28z m29 8 c-3 -7 -5 -2 -5 12 0 14 2 19 5 13 2 -7 2 -19 0 -25z m-1600 5 c-4 -3 -7 0 -7 7 0 7 3 10 7 7 3 -4 3 -10 0 -14z m1363 -43 l-11 -25 6 25 c2 14 5 34 6 45 2 19 2 19 6 0 2 -12 -1 -32 -7 -45z m-980 20 c7 -14 7 -20 0 -20 -5 0 -10 6 -10 14 0 8 -6 17 -12 19 -10 4 -10 6 -1 6 7 1 17 -8 23 -19z m740 -21 c-12 -41 -20 -48 -20 -18 0 20 16 49 26 49 2 0 -1 -14 -6 -31z m217 9 c-3 -8 -6 -5 -6 6 -1 11 2 17 5 13 3 -3 4 -12 1 -19z m-980 -5 c-4 -3 -10 -3 -14 0 -3 4 0 7 7 7 7 0 10 -3 7 -7z m233 -18 c0 -8 -9 -15 -20 -15 -20 0 -26 11 -13 23 12 13 33 7 33 -8z m995 5 c3 -5 4 -10 1 -10 -3 0 -8 5 -11 10 -3 6 -4 10 -1 10 3 0 8 -4 11 -10z m-448 -17 c-4 -3 -7 0 -7 7 0 7 3 10 7 7 3 -4 3 -10 0 -14z m205 -15 c-7 -7 -12 -21 -12 -32 0 -10 -3 -17 -6 -13 -10 10 5 57 18 57 9 0 9 -3 0 -12z m272 -33 c7 -34 -7 -15 -19 25 -5 16 -4 22 3 15 5 -5 12 -23 16 -40z m-1067 18 c-4 -3 -7 0 -7 7 0 7 3 10 7 7 3 -4 3 -10 0 -14z m69 -71 c-10 -9 -13 0 -20 48 l-6 45 16 -43 c8 -24 13 -46 10 -50z m219 61 l40 -7 -30 -7 c-29 -6 -29 -7 8 -8 22 -1 37 4 37 11 0 6 2 9 6 6 3 -3 -2 -21 -11 -39 -9 -21 -14 -25 -11 -11 4 19 0 22 -28 22 -32 0 -33 -1 -34 -50 0 -29 3 -48 9 -45 5 4 9 1 9 -4 0 -6 -4 -11 -10 -11 -12 0 -35 44 -44 85 -4 17 -9 38 -12 48 -6 19 7 21 71 10z m645 -58 c0 -5 -5 -3 -10 5 -5 8 -10 20 -10 25 0 6 5 3 10 -5 5 -8 10 -19 10 -25z m-23 -17 c-3 -8 -6 -5 -6 6 -1 11 2 17 5 13 3 -3 4 -12 1 -19z m57 -58 c5 -20 3 -18 -12 8 -10 18 -21 29 -25 25 -5 -4 -5 1 -1 10 6 17 7 17 19 0 7 -10 15 -29 19 -43z m-875 0 c0 -9 -4 -8 -9 5 -5 11 -9 14 -9 8 -1 -7 -5 -13 -10 -13 -5 0 -4 11 2 25 10 21 13 22 19 7 4 -9 7 -24 7 -32z m231 28 c0 -7 -7 -33 -15 -58 l-15 -45 6 40 c4 22 7 48 6 58 0 9 3 17 9 17 5 0 9 -6 9 -12z m600 -21 c0 -5 -4 -5 -10 -2 -5 3 -10 14 -10 23 0 15 2 15 10 2 5 -8 10 -19 10 -23z m80 -80 c0 -16 -18 3 -23 25 -6 22 -5 22 8 4 8 -11 15 -24 15 -29z m-1493 18 c0 -8 -4 -12 -9 -9 -5 3 -6 10 -3 15 9 13 12 11 12 -6z m314 -18 c-10 -9 -11 -8 -5 6 3 10 9 15 12 12 3 -3 0 -11 -7 -18z m296 -29 c-3 -8 -6 -5 -6 6 -1 11 2 17 5 13 3 -3 4 -12 1 -19z m853 2 c0 -5 -2 -10 -4 -10 -3 0 -8 5 -11 10 -3 6 -1 10 4 10 6 0 11 -4 11 -10z m-893 -17 c-4 -3 -7 0 -7 7 0 7 3 10 7 7 3 -4 3 -10 0 -14z m530 -30 c-3 -10 -5 -2 -5 17 0 19 2 27 5 18 2 -10 2 -26 0 -35z m-480 10 c-4 -3 -7 0 -7 7 0 7 3 10 7 7 3 -4 3 -10 0 -14z m868 -23 c3 -5 1 -10 -4 -10 -6 0 -11 5 -11 10 0 6 2 10 4 10 3 0 8 -4 11 -10z m-408 -26 c-3 -3 -12 -4 -19 -1 -8 3 -5 6 6 6 11 1 17 -2 13 -5z"/>
<path d="M1570 771 c0 -16 28 -20 40 -5 10 12 8 14 -14 14 -14 0 -26 -4 -26 -9z"/>
<path d="M281 595 l-122 -124 15 -28 c16 -30 236 -253 236 -239 0 4 -47 56 -105 114 -58 59 -108 117 -111 129 -9 32 14 63 130 175 56 54 96 98 90 98 -6 0 -66 -56 -133 -125z"/>
<path d="M6133 673 c-26 -22 -43 -30 -43 -22 0 11 -2 11 -11 -1 -9 -13 -10 -13 -6 0 2 8 11 14 21 12 18 -3 22 13 5 24 -6 3 -24 -6 -39 -21 l-29 -28 22 -28 c12 -15 28 -26 35 -24 6 3 12 -1 12 -7 0 -7 14 -27 32 -45 l32 -33 -68 -69 -69 -69 28 -26 c32 -30 52 -33 57 -10 2 14 9 12 36 -11 l34 -28 104 104 104 104 -107 107 -108 107 -42 -36z m1 -93 c12 -20 15 -31 7 -29 -7 3 -11 7 -9 11 2 3 -8 19 -22 34 -14 15 -19 25 -10 22 8 -3 24 -20 34 -38z m61 -52 c29 -25 34 -44 6 -27 -18 12 -46 49 -36 49 3 0 16 -10 30 -22z m-18 -45 c-4 -3 -7 0 -7 7 0 7 3 10 7 7 3 -4 3 -10 0 -14z m-17 -48 c-24 -25 -49 -45 -55 -45 -5 0 -16 -9 -23 -20 -7 -11 -17 -20 -22 -20 -6 0 -3 11 6 25 9 14 25 25 35 25 12 0 24 13 33 35 15 36 30 50 19 18 -5 -14 -1 -13 18 5 42 40 34 23 -11 -23z m-63 -92 c-4 -3 -7 0 -7 7 0 7 3 10 7 7 3 -4 3 -10 0 -14z"/>
<path d="M425 190 c3 -5 8 -10 11 -10 3 0 2 5 -1 10 -3 6 -8 10 -11 10 -3 0 -2 -4 1 -10z"/>
</g>
<g id="layer113" fill="#a05d5c" stroke="none">
<path d="M494 758 c-112 -99 -251 -234 -269 -262 -10 -15 -15 -35 -12 -49 4 -12 87 -102 187 -200 216 -214 222 -216 288 -139 23 28 42 54 42 58 0 4 -61 69 -135 144 -74 75 -135 140 -135 144 0 24 32 58 179 192 53 49 51 61 -23 126 l-53 47 -69 -61z"/>
</g>
<g id="layer114" fill="#7f8181" stroke="none">
<path d="M650 1093 c-24 -3 -48 -17 -77 -46 -24 -23 -43 -46 -43 -52 0 -6 61 -71 135 -145 90 -90 135 -142 135 -156 0 -15 -31 -50 -99 -111 -55 -48 -103 -98 -107 -111 -5 -18 3 -32 45 -74 45 -45 55 -51 71 -40 15 9 22 8 34 -4 14 -14 32 0 178 137 164 154 187 180 188 211 0 35 -374 399 -407 396 -10 0 -34 -3 -53 -5z"/>
<path d="M5640 864 c0 -3 8 -26 19 -52 10 -26 63 -171 118 -322 l100 -275 86 -3 87 -3 -14 38 c-8 21 -40 108 -71 193 -31 85 -80 217 -108 293 l-50 137 -84 0 c-45 0 -83 -3 -83 -6z"/>
<path d="M1615 749 l-45 -42 0 -212 0 -212 41 -36 41 -37 166 0 166 0 43 42 c40 39 43 46 43 95 l0 53 -75 0 c-72 0 -75 -1 -75 -23 0 -41 -29 -57 -103 -57 -96 0 -97 1 -97 179 0 101 4 151 12 159 7 7 38 12 71 12 50 0 63 -4 98 -32 21 -17 39 -34 39 -38 0 -3 -14 -5 -30 -4 -62 4 -70 -3 -70 -62 l0 -54 120 0 120 0 0 155 0 155 -60 0 c-44 0 -61 -4 -68 -16 -9 -16 -11 -16 -33 0 -19 13 -48 16 -141 16 l-118 0 -45 -41z"/>
<path d="M2230 788 c0 -2 -1 -132 -3 -291 l-2 -287 77 0 78 0 2 228 3 227 133 0 133 0 -3 60 -3 60 -207 3 c-115 1 -208 1 -208 0z"/>
<path d="M2670 775 c0 -8 25 -100 56 -203 31 -103 67 -225 79 -272 l22 -85 126 -3 125 -3 16 48 c8 26 24 80 35 118 48 173 72 251 81 267 11 19 31 92 33 123 2 18 -4 20 -78 20 l-80 0 -12 -49 c-7 -26 -14 -50 -16 -52 -2 -3 -48 -5 -102 -7 l-97 -2 -17 55 -17 55 -77 3 c-64 2 -77 0 -77 -13z m332 -225 c15 0 18 -5 15 -27 -6 -35 -47 -186 -52 -191 -8 -8 -25 10 -25 26 0 9 -11 52 -25 95 -35 109 -35 111 21 103 26 -3 55 -6 66 -6z"/>
<path d="M3295 780 c-3 -5 -5 -135 -4 -290 l1 -280 87 0 c86 0 88 1 100 28 7 15 47 85 89 156 l77 129 3 -157 3 -156 69 0 70 0 0 290 0 291 -72 -3 -72 -3 -88 -155 c-48 -85 -88 -158 -88 -162 0 -5 -7 -8 -15 -8 -13 0 -15 25 -15 165 l0 165 -69 0 c-39 0 -72 -4 -76 -10z"/>
<path d="M3921 749 l-43 -40 1 -212 2 -212 36 -37 37 -38 158 0 157 0 40 42 c38 40 41 47 41 101 l0 57 -75 0 c-74 0 -75 0 -71 -24 7 -41 -24 -64 -90 -65 -32 0 -64 5 -71 11 -18 14 -19 308 -1 326 16 16 140 16 156 0 7 -7 12 -26 12 -44 l0 -32 75 -4 75 -3 0 67 c0 66 -1 68 -42 107 l-43 40 -156 1 -156 0 -42 -41z"/>
<path d="M4366 781 c-4 -5 5 -45 18 -88 13 -43 34 -112 46 -153 12 -41 28 -93 35 -115 7 -22 23 -79 35 -127 l23 -88 127 0 126 0 54 188 c29 103 68 230 87 282 18 52 29 98 24 103 -4 4 -41 7 -82 5 l-74 -3 -17 -50 c-16 -49 -17 -50 -65 -57 -26 -3 -72 -7 -100 -7 -49 -1 -53 1 -59 27 -22 96 -12 87 -96 90 -42 2 -79 -2 -82 -7z m352 -236 c2 -2 -4 -27 -12 -57 -9 -29 -23 -79 -32 -110 -8 -32 -19 -58 -24 -58 -4 0 -11 16 -14 35 -4 20 -15 61 -25 93 -10 31 -21 70 -25 85 l-7 29 68 -7 c37 -4 69 -9 71 -10z"/>
<path d="M4995 784 c-6 -2 -9 -106 -8 -286 l2 -283 77 0 77 0 54 125 c30 69 62 143 72 164 l17 40 16 -40 c9 -21 27 -64 41 -94 13 -30 37 -88 53 -127 l29 -73 78 0 77 0 0 290 0 290 -70 0 -69 0 -3 -142 -3 -143 -30 75 c-16 41 -43 99 -58 128 -26 47 -32 52 -62 52 -40 0 -38 3 -96 -134 l-46 -108 -6 83 c-4 46 -7 108 -7 137 l0 52 -62 -1 c-35 0 -67 -2 -73 -5z"/>
<path d="M1307 602 c-53 -53 -97 -102 -97 -107 0 -10 116 -126 183 -185 l27 -24 39 38 39 38 -70 66 -69 65 70 71 70 71 -39 33 c-21 17 -42 32 -47 31 -4 0 -52 -44 -106 -97z"/>
<path d="M6130 665 l-34 -35 62 -63 c34 -34 62 -67 62 -73 0 -6 -27 -37 -60 -68 -33 -32 -60 -61 -60 -65 0 -4 18 -22 41 -41 l41 -33 104 104 104 104 -102 102 c-57 57 -107 103 -113 103 -6 0 -26 -16 -45 -35z"/>
</g>
<g id="layer115" fill="#a09c4b" stroke="none">
<path d="M649 1093 c-27 -3 -47 -15 -79 -49 l-42 -44 42 -46 c24 -26 85 -88 136 -138 71 -69 94 -98 94 -117 0 -20 -22 -47 -96 -115 -53 -49 -100 -97 -106 -108 -8 -16 -1 -28 45 -74 46 -46 58 -53 70 -43 12 9 18 8 31 -4 15 -15 29 -4 178 136 164 154 187 180 188 211 0 35 -374 399 -407 396 -10 -1 -34 -3 -54 -5z"/>
</g>
<g id="layer116" fill="#e55f60" stroke="none">
<path d="M550 804 c-8 -8 -86 -84 -173 -167 -112 -108 -157 -158 -157 -174 0 -27 355 -382 396 -398 24 -9 30 -6 61 30 64 75 69 62 -81 214 -75 75 -136 144 -136 153 0 8 35 49 77 89 109 104 143 139 143 147 -1 10 -19 31 -71 79 -40 39 -46 41 -59 27z"/>
</g>
<g id="layer117" fill="#fa5c5c" stroke="none">
<path d="M396 648 c-120 -117 -166 -169 -166 -186 0 -16 47 -68 162 -180 89 -86 173 -169 187 -184 37 -40 63 -36 110 19 l40 47 -82 85 c-45 48 -106 108 -134 135 -78 72 -75 80 54 203 l108 101 -15 27 c-8 15 -33 43 -56 62 l-41 33 -167 -162z"/>
</g>
<g id="layer118" fill="#949493" stroke="none">
<path d="M571 1045 l-43 -45 42 -46 c24 -26 85 -88 136 -138 71 -69 94 -98 94 -117 0 -20 -22 -47 -96 -115 -53 -49 -100 -97 -106 -108 -8 -16 -1 -28 45 -74 48 -48 58 -54 71 -43 13 11 19 11 31 1 18 -15 1 -29 203 160 143 133 169 167 152 200 -11 21 -305 312 -352 349 -19 15 -41 21 -80 21 -51 0 -56 -3 -97 -45z"/>
<path d="M5650 858 c0 -7 50 -150 111 -318 61 -168 112 -311 114 -317 6 -17 165 -18 165 -2 0 6 -49 145 -109 308 -60 163 -112 306 -116 319 -6 20 -12 22 -86 22 -56 0 -79 -4 -79 -12z"/>
<path d="M1615 748 l-45 -43 0 -204 0 -205 42 -43 42 -43 165 0 165 0 43 42 c40 39 43 46 43 95 l0 53 -75 0 c-72 0 -75 -1 -71 -22 7 -43 -20 -58 -104 -58 -46 0 -81 5 -88 12 -17 17 -17 309 0 326 7 7 40 12 78 12 62 0 68 -2 98 -33 18 -18 32 -36 32 -40 0 -4 -22 -7 -50 -7 l-50 0 0 -55 0 -55 120 0 120 0 0 155 0 155 -61 0 c-52 0 -62 -3 -66 -20 -5 -20 -5 -20 -30 0 -22 17 -41 20 -144 20 l-119 0 -45 -42z"/>
<path d="M2237 784 c-4 -4 -7 -135 -7 -291 l0 -283 75 0 75 0 0 231 0 230 130 -3 c147 -3 145 -5 138 78 l-3 39 -201 3 c-110 1 -203 -1 -207 -4z"/>
<path d="M2676 781 c-3 -5 31 -135 76 -290 l83 -281 121 0 121 0 48 163 c26 89 65 216 86 282 21 65 35 123 30 128 -4 4 -41 7 -82 5 l-74 -3 -10 -50 -11 -50 -60 -8 c-32 -4 -79 -6 -104 -5 l-44 3 -16 55 -16 55 -71 3 c-39 2 -74 -1 -77 -7z m350 -240 c-45 -172 -60 -221 -68 -221 -5 0 -10 6 -12 13 -2 6 -16 53 -30 103 -37 129 -39 124 44 123 60 -1 70 -4 66 -18z"/>
<path d="M3305 778 c-2 -7 -6 -138 -7 -291 l-3 -277 86 0 c74 0 88 3 92 18 7 20 59 112 92 162 12 19 37 60 54 90 l31 55 0 -162 0 -163 70 0 70 0 -2 288 -3 287 -60 3 c-33 1 -65 -1 -71 -5 -10 -7 -134 -219 -134 -229 0 -11 -63 -104 -71 -104 -5 0 -10 75 -11 168 l-3 167 -63 3 c-44 2 -64 -1 -67 -10z"/>
<path d="M3925 749 l-45 -42 0 -208 0 -208 40 -41 39 -40 153 0 152 0 43 42 c41 40 43 45 43 100 l0 58 -70 0 -70 0 0 -28 c0 -45 -27 -62 -96 -62 -33 0 -65 5 -72 12 -8 8 -12 59 -12 164 0 180 0 180 94 176 72 -4 86 -13 86 -58 l0 -34 75 0 75 0 0 64 c0 62 -1 64 -45 105 l-45 41 -150 0 -150 0 -45 -41z"/>
<path d="M4368 784 c-4 -3 -2 -18 2 -32 5 -15 42 -142 83 -282 l74 -255 125 -3 124 -3 13 53 c8 29 22 80 32 113 10 33 30 101 45 150 14 50 37 123 51 164 13 40 22 80 19 88 -4 11 -23 13 -78 11 l-73 -3 -14 -51 -15 -52 -59 -6 c-106 -11 -145 -8 -151 12 -3 9 -10 36 -16 60 l-11 42 -73 0 c-40 0 -75 -3 -78 -6z m352 -231 c1 -27 -57 -233 -65 -233 -9 0 -75 208 -75 234 0 9 140 7 140 -1z"/>
<path d="M4997 783 c-4 -3 -7 -134 -7 -290 l0 -284 75 3 76 3 45 105 c24 58 57 132 73 164 l29 60 16 -35 c9 -19 41 -92 71 -164 l54 -130 76 -3 75 -3 -2 288 -3 288 -67 3 -67 3 -3 -148 -3 -148 -19 50 c-10 28 -36 87 -57 133 l-39 83 -37 -3 -37 -3 -55 -134 -56 -134 -3 152 -3 151 -63 0 c-34 0 -66 -3 -69 -7z"/>
<path d="M1310 604 c-55 -53 -100 -100 -100 -104 0 -9 201 -210 210 -210 3 0 21 16 40 35 l34 35 -69 70 -69 70 67 65 c37 35 67 67 67 70 0 7 -63 64 -72 65 -4 0 -53 -43 -108 -96z"/>
<path d="M6131 666 l-33 -33 68 -67 69 -66 -68 -68 c-73 -73 -73 -71 -16 -120 l26 -23 69 70 c38 38 85 85 104 105 l34 36 -99 100 c-55 55 -104 100 -110 99 -5 0 -25 -15 -44 -33z"/>
</g>
<g id="layer119" fill="#a1a09d" stroke="none">
<path d="M572 1042 l-42 -46 140 -141 c77 -78 140 -148 140 -156 0 -19 -37 -60 -130 -145 -41 -37 -79 -74 -84 -82 -6 -10 7 -29 44 -67 45 -45 56 -52 71 -42 13 8 21 8 34 -3 18 -15 -1 -30 203 160 143 133 169 167 152 200 -11 21 -305 312 -352 349 -19 16 -40 21 -80 20 -50 -1 -55 -3 -96 -47z m213 -262 c10 -11 16 -20 13 -20 -3 0 -13 9 -23 20 -10 11 -16 20 -13 20 3 0 13 -9 23 -20z"/>
<path d="M5650 859 c0 -6 38 -113 84 -238 46 -124 99 -268 117 -318 l33 -93 78 0 c44 0 78 4 78 10 0 5 -47 137 -104 292 -57 156 -109 300 -115 321 l-13 37 -79 0 c-52 0 -79 -4 -79 -11z"/>
<path d="M1621 745 l-51 -48 0 -201 0 -202 43 -42 43 -42 164 0 164 0 43 42 c40 39 43 46 43 95 l0 53 -70 0 c-67 0 -70 -1 -70 -23 0 -42 -29 -57 -111 -57 -45 0 -80 5 -87 12 -8 8 -12 59 -12 163 0 183 2 186 96 176 45 -4 69 -13 92 -33 44 -37 40 -48 -18 -48 l-50 0 0 -55 0 -55 120 0 121 0 -3 153 -3 152 -35 1 c-56 3 -89 -6 -83 -22 7 -19 -7 -18 -30 4 -15 14 -42 18 -138 20 l-118 4 -50 -47z"/>
<path d="M2237 784 c-4 -4 -7 -135 -7 -291 l0 -283 75 0 75 0 0 231 0 230 130 -3 c99 -2 130 0 131 10 0 6 1 33 1 60 l1 47 -200 3 c-109 1 -202 -1 -206 -4z"/>
<path d="M2675 780 c-2 -4 23 -98 57 -211 68 -228 72 -244 89 -311 l12 -48 122 0 122 0 82 273 c45 149 83 279 84 287 2 17 -56 24 -119 15 -41 -6 -42 -7 -49 -50 -3 -27 -13 -49 -23 -54 -9 -5 -58 -9 -108 -10 l-91 -2 -13 56 c-8 35 -19 57 -30 60 -24 7 -130 4 -135 -5z m355 -227 c-1 -18 -58 -225 -64 -230 -10 -11 -23 9 -35 57 -6 25 -20 75 -30 113 l-20 67 75 0 c41 0 74 -3 74 -7z"/>
<path d="M3307 783 c-4 -3 -7 -134 -7 -290 l0 -283 79 0 c79 0 79 0 99 33 10 17 52 89 93 160 l74 127 3 -160 2 -160 70 0 70 0 -2 288 -3 287 -40 3 c-78 7 -97 -3 -131 -66 -95 -179 -150 -272 -161 -272 -9 0 -13 43 -15 167 l-3 168 -61 2 c-33 2 -64 0 -67 -4z"/>
<path d="M3980 783 c-14 -3 -42 -21 -62 -41 l-38 -37 0 -205 0 -206 43 -42 43 -42 149 0 149 0 43 42 c41 40 43 45 43 100 l0 58 -70 0 -70 0 0 -28 c0 -45 -27 -62 -96 -62 -33 0 -65 5 -72 12 -8 8 -12 59 -12 162 0 184 2 188 94 179 74 -7 86 -15 86 -59 l0 -34 75 0 75 0 0 63 c0 60 -2 65 -40 102 l-41 40 -137 1 c-75 2 -148 0 -162 -3z"/>
<path d="M4373 774 c-2 -6 32 -133 76 -282 45 -149 81 -274 81 -277 0 -3 55 -4 122 -3 l122 3 53 180 c29 99 67 222 83 274 17 52 29 100 26 107 -6 15 -121 20 -142 6 -7 -4 -17 -27 -24 -52 -7 -25 -17 -48 -24 -52 -6 -4 -52 -8 -103 -8 l-92 0 -11 43 c-6 23 -13 47 -15 54 -8 23 -143 30 -152 7z m347 -226 c1 -34 -56 -228 -67 -228 -6 0 -15 15 -18 33 -4 17 -15 57 -25 87 -10 30 -21 70 -25 88 l-7 32 71 0 c50 0 71 -4 71 -12z"/>
<path d="M5003 784 c-10 -4 -13 -72 -13 -290 l0 -285 76 3 75 3 49 115 c27 63 60 137 73 164 29 59 19 71 107 -136 l62 -148 74 0 74 0 0 285 0 285 -23 5 c-13 4 -43 5 -68 3 l-44 -3 -3 -150 -3 -150 -38 90 c-82 194 -77 185 -115 185 -37 0 -29 14 -134 -235 l-17 -40 -5 150 -5 150 -55 2 c-30 1 -61 -1 -67 -3z"/>
<path d="M1308 601 l-103 -100 105 -106 106 -106 39 36 40 35 -70 70 -70 71 68 66 68 66 -32 34 c-18 18 -36 33 -40 33 -4 0 -54 -45 -111 -99z"/>
<path d="M6138 671 c-16 -15 -28 -31 -28 -36 0 -5 28 -38 62 -72 l62 -63 -62 -63 c-34 -34 -62 -69 -61 -77 0 -8 15 -27 33 -42 l32 -27 105 105 104 104 -100 100 c-55 55 -104 100 -110 99 -5 -1 -22 -13 -37 -28z"/>
</g>
<g id="layer120" fill="#abaa94" stroke="none">
<path d="M573 1041 l-43 -48 136 -133 c88 -87 143 -134 157 -135 28 0 34 -37 10 -56 -17 -13 -17 -13 -4 4 11 14 11 21 3 29 -9 9 -12 8 -12 -4 0 -9 -47 -58 -104 -110 -58 -51 -108 -103 -112 -116 -5 -18 1 -31 27 -58 18 -19 39 -32 46 -30 7 3 15 0 19 -6 4 -7 3 -8 -4 -4 -7 4 -12 3 -12 -2 0 -17 12 -21 30 -10 14 9 22 9 35 -2 18 -15 -1 -30 203 160 143 133 169 167 152 200 -11 21 -305 312 -352 349 -29 24 -103 29 -111 9 -4 -10 -6 -10 -6 0 -2 20 -14 12 -58 -37z m6 -32 c-9 -17 -8 -23 2 -30 7 -4 11 -11 7 -14 -3 -3 -13 2 -22 11 -16 15 -16 18 0 35 22 25 27 24 13 -2z m94 -128 c-2 -3 -16 8 -31 24 l-27 28 31 -24 c17 -13 30 -26 27 -28z m127 -119 c0 -6 -27 15 -62 47 -16 14 -28 29 -28 35 0 6 20 -10 45 -34 25 -24 45 -46 45 -48z m-96 -207 c-9 -14 -18 -25 -21 -25 -5 0 5 18 20 38 17 22 18 13 1 -13z m-64 -75 c-10 -6 -8 -16 8 -43 14 -25 16 -34 7 -31 -8 3 -17 14 -20 25 -4 10 -11 19 -16 19 -15 0 -10 22 8 42 12 13 19 15 21 8 3 -7 -1 -16 -8 -20z"/>
</g>
<g id="layer121" fill="#d6d26a" stroke="none">
<path d="M620 1045 l-44 -44 20 -23 c10 -13 74 -77 141 -143 68 -66 123 -127 123 -136 0 -19 -216 -229 -226 -220 -4 3 0 -7 9 -24 16 -32 45 -61 91 -89 33 -21 6 -40 214 154 143 133 169 167 152 200 -11 21 -305 312 -352 349 -43 34 -78 27 -128 -24z"/>
</g>
<g id="layer122" fill="#b2b2b1" stroke="none">
<path d="M573 1041 l-42 -47 139 -139 c77 -76 140 -134 140 -129 -1 10 -118 133 -204 213 l-58 53 29 32 c15 17 34 34 41 39 13 9 17 28 5 26 -5 -1 -27 -22 -50 -48z"/>
<path d="M670 1081 c0 -5 -9 -13 -21 -16 -11 -4 -24 -18 -29 -31 -5 -13 -16 -24 -25 -24 -13 0 -13 -4 2 -27 17 -27 149 -161 136 -139 -4 6 26 -20 65 -59 40 -38 72 -76 72 -83 0 -18 -112 -134 -173 -179 -26 -19 -44 -40 -40 -46 4 -6 0 -8 -10 -4 -16 6 -16 4 -2 -23 9 -17 18 -30 21 -30 3 0 2 6 -2 13 -4 7 -3 9 2 4 5 -5 9 -14 9 -20 1 -7 6 -11 13 -9 7 1 11 -2 10 -7 -2 -5 2 -10 7 -11 6 0 20 -11 32 -22 l23 -21 62 59 c270 253 278 261 278 292 1 22 -35 62 -186 210 -154 149 -193 182 -216 182 -15 0 -28 -4 -28 -9z"/>
<path d="M5650 863 c0 -5 53 -153 117 -330 l118 -323 78 0 c42 0 77 3 77 8 0 8 -48 142 -161 449 l-74 203 -77 0 c-43 0 -78 -3 -78 -7z"/>
<path d="M1612 737 l-42 -43 0 -197 0 -197 41 -45 42 -45 165 0 166 0 43 42 c40 39 43 46 43 95 l0 53 -70 0 c-67 0 -70 -1 -70 -23 0 -42 -29 -57 -111 -57 -45 0 -80 5 -87 12 -8 8 -12 59 -12 163 0 184 2 187 96 178 49 -4 68 -11 97 -37 20 -18 37 -35 37 -38 0 -4 -24 -8 -52 -10 l-53 -3 -3 -52 -3 -53 120 0 121 0 0 150 0 150 -60 0 c-47 0 -60 -3 -60 -15 0 -19 -11 -19 -36 0 -14 11 -50 14 -144 15 l-126 0 -42 -43z"/>
<path d="M2230 495 l0 -286 73 3 72 3 3 228 2 227 130 0 130 0 0 55 0 55 -205 0 -205 0 0 -285z"/>
<path d="M2676 758 c4 -13 42 -140 84 -283 l76 -260 120 -3 121 -3 32 113 c40 140 86 291 116 383 l22 70 -74 3 c-42 2 -78 1 -81 -2 -3 -3 -10 -27 -17 -53 l-12 -48 -106 -3 -105 -3 -13 56 -12 55 -79 0 c-78 0 -79 0 -72 -22z m353 -210 c0 -7 -13 -60 -28 -118 -34 -129 -49 -137 -74 -43 -30 114 -34 127 -41 151 -7 21 -6 22 68 22 54 0 76 -4 75 -12z"/>
<path d="M3300 495 l0 -285 80 0 79 0 24 42 c13 24 55 97 93 162 l69 120 3 -162 2 -162 70 0 70 0 0 285 0 285 -74 0 c-51 0 -76 -4 -78 -13 -8 -33 -174 -317 -185 -317 -10 0 -13 39 -13 165 l0 165 -70 0 -70 0 0 -285z"/>
<path d="M3918 738 l-38 -41 0 -202 0 -201 43 -42 43 -42 149 0 149 0 43 42 c41 40 43 45 43 100 l0 58 -70 0 c-68 0 -70 -1 -70 -26 0 -53 -15 -64 -88 -64 -40 0 -73 5 -80 12 -8 8 -12 60 -12 170 0 185 -2 181 104 171 70 -6 69 -5 78 -68 3 -18 12 -20 76 -23 l72 -3 0 61 c0 60 -1 63 -42 101 l-43 38 -160 0 -160 0 -37 -41z"/>
<path d="M4370 774 c0 -4 30 -108 66 -233 36 -124 73 -250 82 -279 l15 -53 120 3 121 3 43 150 c24 83 62 207 83 277 22 69 40 129 40 132 0 3 -35 6 -79 6 l-79 0 -7 -37 c-13 -72 -15 -73 -126 -73 -71 0 -101 4 -104 13 -2 6 -9 31 -15 55 l-11 42 -74 0 c-41 0 -75 -3 -75 -6z m350 -229 c0 -9 -12 -63 -26 -120 -29 -116 -46 -132 -64 -62 -6 23 -20 72 -31 108 -10 36 -19 71 -19 78 0 7 24 11 70 11 56 0 70 -3 70 -15z"/>
<path d="M4990 495 l0 -285 73 0 74 0 74 170 c40 93 76 166 80 162 4 -4 37 -80 75 -169 l67 -163 74 0 73 0 0 285 0 285 -70 0 -70 0 0 -147 -1 -148 -57 135 c-58 135 -58 135 -94 138 l-36 3 -47 -113 c-26 -62 -52 -124 -59 -138 -9 -20 -12 3 -14 123 l-3 147 -69 0 -70 0 0 -285z"/>
<path d="M817 691 c-3 -12 -1 -21 3 -21 15 0 23 21 12 32 -6 6 -11 2 -15 -11z"/>
<path d="M1311 598 l-103 -103 101 -97 c56 -54 104 -98 109 -98 4 0 22 14 41 31 l34 31 -69 69 -69 70 68 66 68 66 -32 34 c-18 18 -36 33 -39 33 -3 0 -52 -46 -109 -102z"/>
<path d="M6143 671 c-18 -15 -33 -32 -33 -37 0 -5 29 -38 65 -74 l64 -63 -64 -64 c-36 -35 -65 -68 -65 -72 0 -4 15 -21 33 -39 l33 -32 104 105 105 105 -100 100 c-55 55 -102 100 -105 100 -3 -1 -20 -13 -37 -29z"/>
<path d="M715 585 c-33 -30 -55 -54 -48 -55 7 0 17 9 23 19 5 11 25 29 44 40 19 12 37 28 40 36 3 8 4 15 3 15 -1 0 -29 -25 -62 -55z"/>
<path d="M622 500 c-12 -12 -22 -29 -22 -38 0 -20 96 -117 103 -105 3 5 -10 19 -29 33 -18 14 -36 33 -39 43 -4 9 -11 17 -16 17 -16 0 -10 23 13 47 27 28 20 30 -10 3z"/>
</g>
<g id="layer123" fill="#cac6a0" stroke="none">
<path d="M670 1081 c0 -5 -9 -13 -21 -16 -11 -4 -24 -18 -29 -31 -5 -13 -16 -24 -25 -24 -13 0 -13 -4 2 -27 17 -27 149 -161 136 -139 -4 6 26 -20 65 -59 40 -38 72 -76 72 -83 0 -18 -112 -134 -173 -179 -26 -19 -45 -38 -42 -43 3 -5 -1 -10 -7 -13 -16 -5 24 -63 41 -59 6 1 10 -2 9 -7 -2 -5 2 -10 7 -11 6 0 20 -11 32 -22 l23 -21 62 59 c270 253 278 261 278 292 1 22 -35 62 -186 210 -154 149 -193 182 -216 182 -15 0 -28 -4 -28 -9z m5 -651 c3 -5 4 -10 1 -10 -3 0 -8 5 -11 10 -3 6 -4 10 -1 10 3 0 8 -4 11 -10z"/>
</g>
<g id="layer124" fill="#fdf852" stroke="none">
<path d="M632 1045 c-33 -36 -40 -49 -33 -63 5 -9 68 -73 140 -141 72 -68 131 -132 131 -141 0 -10 -49 -65 -110 -122 -60 -58 -110 -110 -110 -115 0 -14 101 -114 111 -111 8 3 238 218 301 281 65 65 63 68 -148 275 -146 142 -193 182 -213 182 -18 0 -40 -15 -69 -45z"/>
</g>
<g id="layer125" fill="#f8f46a" stroke="none">
<path d="M632 1045 c-33 -36 -40 -49 -33 -63 5 -9 66 -71 136 -137 145 -137 144 -137 125 -110 -14 20 -23 28 -111 111 -64 60 -139 142 -139 152 0 5 19 28 41 51 23 22 37 41 33 41 -5 0 -28 -21 -52 -45z"/>
<path d="M721 1083 c0 -5 19 -24 42 -43 l42 -34 -40 42 c-40 43 -46 47 -44 35z"/>
<path d="M815 990 c3 -5 8 -10 11 -10 2 0 4 5 4 10 0 6 -5 10 -11 10 -5 0 -7 -4 -4 -10z"/>
<path d="M850 964 c0 -5 11 -20 23 -34 25 -27 127 -114 127 -108 0 3 -34 37 -75 77 -41 40 -75 69 -75 65z"/>
<path d="M1028 785 c6 -11 22 -31 36 -45 21 -19 25 -30 20 -53 -4 -20 -3 -27 5 -23 23 15 11 57 -30 99 -22 23 -36 33 -31 22z"/>
<path d="M758 576 c-60 -57 -108 -108 -108 -113 0 -16 80 -93 97 -93 13 0 13 3 3 15 -7 8 -16 13 -20 10 -10 -6 -60 52 -60 69 0 7 37 45 83 85 67 61 131 132 115 131 -1 -1 -51 -47 -110 -104z"/>
<path d="M970 558 c-36 -34 -60 -59 -53 -57 14 5 125 110 121 114 -2 2 -32 -24 -68 -57z"/>
<path d="M804 398 c-4 -7 -3 -8 4 -4 7 4 12 9 12 12 0 8 -9 4 -16 -8z"/>
</g>
<g id="layer126" fill="#d0d0d0" stroke="none">
<path d="M5655 848 c7 -22 145 -400 204 -558 l28 -75 77 -3 c42 -2 76 0 76 4 0 4 -21 64 -46 133 -25 69 -71 194 -100 276 -30 83 -63 170 -73 195 l-17 45 -78 3 c-77 3 -78 3 -71 -20z"/>
<path d="M1615 740 l-40 -41 -3 -194 -4 -194 47 -50 48 -51 158 0 157 0 46 46 c42 42 46 50 46 95 l0 49 -70 0 -70 0 0 -28 c0 -15 -5 -33 -12 -40 -13 -13 -153 -17 -182 -6 -14 5 -16 29 -16 164 0 188 1 190 91 190 54 0 62 -3 99 -36 22 -20 40 -40 40 -45 0 -4 -24 -9 -52 -11 l-53 -3 -3 -52 -3 -53 120 0 121 0 0 150 0 150 -60 0 c-53 0 -60 -2 -60 -20 0 -11 -4 -20 -8 -20 -5 0 -17 9 -27 20 -16 18 -31 20 -145 20 l-126 0 -39 -40z"/>
<path d="M2230 495 l0 -285 70 0 70 0 2 228 3 227 133 3 132 3 0 54 0 55 -205 0 -205 0 0 -285z"/>
<path d="M2707 663 c20 -65 57 -192 83 -283 l48 -165 118 0 117 0 23 70 c31 96 144 479 144 488 0 4 -33 7 -74 7 l-73 0 -15 -52 -15 -53 -105 -3 -105 -3 -15 53 -15 53 -75 3 -76 3 35 -118z m323 -110 c0 -5 -12 -59 -27 -120 -36 -150 -48 -150 -88 -5 -15 59 -30 113 -33 120 -3 9 15 12 72 12 42 0 76 -3 76 -7z"/>
<path d="M3300 495 l0 -285 78 0 78 0 53 92 c30 51 72 126 95 166 l41 72 2 -37 c2 -21 4 -94 5 -163 l3 -125 68 -3 67 -3 0 286 0 286 -71 -3 -71 -3 -89 -160 c-48 -88 -95 -161 -104 -163 -16 -4 -19 30 -18 231 l1 97 -69 0 -69 0 0 -285z"/>
<path d="M3922 737 l-42 -43 0 -200 0 -200 43 -42 43 -42 149 0 149 0 43 42 c41 40 43 45 43 100 l0 58 -70 0 -70 0 0 -33 c0 -47 -15 -57 -86 -57 -100 0 -94 -11 -94 175 0 124 3 165 14 174 18 15 126 12 154 -5 16 -11 22 -24 22 -49 l0 -35 70 0 70 0 0 58 c0 55 -2 60 -43 100 l-43 42 -155 0 -155 0 -42 -43z"/>
<path d="M4374 763 c3 -10 21 -72 40 -138 19 -66 54 -185 78 -265 l43 -145 117 -3 117 -3 20 68 c12 37 48 158 80 268 33 110 63 208 67 218 6 16 0 18 -72 15 l-79 -3 -14 -53 -14 -53 -105 3 c-116 3 -108 -2 -126 81 -6 27 -8 27 -82 27 -67 0 -75 -2 -70 -17z m352 -220 c-2 -10 -12 -47 -21 -83 -31 -126 -36 -140 -50 -140 -9 0 -21 22 -31 58 -9 31 -22 79 -30 106 -22 78 -23 76 62 76 67 0 75 -2 70 -17z"/>
<path d="M4998 518 c0 -145 -1 -272 -2 -283 -1 -18 6 -20 69 -23 l70 -3 40 93 c21 51 56 129 76 173 l37 80 29 -64 c15 -36 48 -112 73 -170 l45 -106 70 0 70 0 0 280 0 280 -67 3 -68 3 0 -147 c0 -81 -2 -145 -5 -142 -3 3 -29 63 -58 134 l-53 129 -35 0 c-39 0 -38 2 -105 -163 -23 -57 -45 -106 -48 -109 -3 -4 -6 62 -6 145 l0 152 -65 0 -65 0 -2 -262z"/>
<path d="M1312 597 l-102 -102 82 -81 c133 -128 123 -123 158 -89 17 16 30 32 30 37 0 4 -27 35 -60 68 -33 33 -60 64 -60 68 0 4 29 37 65 72 l65 64 -32 33 c-18 18 -34 33 -38 33 -3 0 -51 -46 -108 -103z"/>
<path d="M6140 665 l-34 -35 67 -68 67 -67 -67 -67 -67 -68 32 -30 c18 -16 36 -30 40 -30 4 0 51 44 105 98 l98 98 -102 102 c-55 56 -102 102 -103 102 -1 0 -17 -16 -36 -35z"/>
</g>
<g id="layer127" fill="#e1e0e1" stroke="none">
<path d="M5659 866 c-4 -4 9 -48 28 -99 19 -51 43 -117 53 -147 11 -30 49 -134 84 -230 l64 -175 77 -3 c71 -3 77 -1 70 15 -4 10 -20 54 -35 98 -15 44 -41 116 -58 160 -16 44 -53 145 -82 225 -29 80 -54 147 -56 149 -6 7 -139 13 -145 7z"/>
<path d="M1622 739 l-42 -41 0 -202 0 -202 43 -42 43 -42 155 0 155 0 48 47 c44 44 47 51 44 93 l-3 45 -67 3 -68 3 0 -29 c0 -15 -5 -33 -12 -40 -13 -13 -153 -17 -182 -6 -14 5 -16 30 -16 168 0 113 4 166 12 174 7 7 39 12 74 12 53 0 67 -4 96 -27 58 -48 62 -70 10 -65 -60 6 -72 -4 -72 -59 l0 -49 120 0 120 0 0 150 0 150 -60 0 c-53 0 -60 -2 -60 -20 0 -11 -3 -20 -6 -20 -3 0 -17 9 -31 20 -22 17 -41 20 -142 20 l-116 0 -43 -41z"/>
<path d="M2235 767 c-3 -7 -4 -134 -3 -282 l3 -270 68 -3 67 -3 0 231 0 230 135 0 135 0 0 55 0 55 -200 0 c-153 0 -202 -3 -205 -13z"/>
<path d="M2680 773 c0 -8 65 -233 133 -461 l30 -103 115 3 116 3 38 130 c22 72 46 155 55 185 9 30 29 95 45 145 15 49 28 93 28 97 0 4 -33 8 -74 8 l-75 0 -12 -55 -12 -55 -108 0 -108 0 -16 55 -16 55 -69 0 c-39 0 -70 -3 -70 -7z m327 -330 c-28 -110 -43 -142 -58 -125 -7 7 -42 124 -53 177 -4 17 -9 38 -12 48 -5 15 3 17 74 17 l80 0 -31 -117z"/>
<path d="M3303 498 l2 -283 75 -3 75 -3 94 166 c52 91 98 168 103 171 4 3 8 -72 8 -165 l0 -171 65 0 65 0 0 285 0 285 -68 0 -68 0 -37 -67 c-21 -38 -57 -104 -81 -148 -25 -44 -55 -91 -68 -105 l-23 -25 -6 65 c-4 36 -7 113 -8 173 l-1 107 -65 0 -65 0 3 -282z"/>
<path d="M3925 740 l-40 -41 -3 -197 -4 -197 48 -48 48 -47 140 0 141 0 48 46 c45 44 47 49 47 100 l0 54 -70 0 -70 0 0 -39 c0 -47 -8 -51 -95 -51 -94 0 -95 2 -95 179 0 178 1 181 102 181 73 0 98 -16 98 -63 0 -31 17 -38 88 -35 l52 2 0 54 c0 49 -4 57 -42 98 l-41 44 -157 0 -156 0 -39 -40z"/>
<path d="M4385 733 c8 -27 37 -127 65 -223 29 -96 59 -202 68 -235 l17 -60 117 -3 c104 -2 117 -1 122 15 3 10 21 72 40 138 30 104 78 264 107 360 16 53 14 55 -61 55 l-69 0 -12 -42 c-6 -24 -13 -49 -15 -55 -2 -9 -32 -13 -104 -13 -55 0 -103 0 -107 -1 -5 0 -14 25 -22 55 l-13 56 -74 0 -73 0 14 -47z m339 -205 c-31 -146 -51 -203 -69 -203 -16 0 -24 17 -46 95 -42 145 -43 140 47 140 l76 0 -8 -32z"/>
<path d="M5000 495 l0 -286 68 3 67 3 71 165 c39 90 75 165 80 167 6 2 41 -72 80 -164 l69 -168 68 -3 67 -3 0 286 0 285 -65 0 -65 0 0 -152 -1 -153 -49 114 c-28 63 -50 120 -50 127 0 17 -27 36 -55 40 -30 3 -41 -16 -100 -166 -20 -52 -41 -99 -46 -105 -5 -5 -9 51 -9 143 l0 152 -65 0 -65 0 0 -285z"/>
<path d="M1315 600 l-100 -100 102 -102 103 -103 32 33 33 32 -63 63 c-34 34 -62 67 -62 73 0 5 27 36 60 69 33 33 60 63 60 67 0 6 -59 69 -64 68 -1 0 -46 -45 -101 -100z"/>
<path d="M6142 667 l-32 -32 67 -67 67 -68 -69 -71 -70 -70 35 -29 c19 -16 37 -30 40 -30 3 0 49 44 103 98 l98 98 -101 99 c-56 55 -102 101 -104 102 -1 1 -16 -12 -34 -30z"/>
</g>
<g id="layer128" fill="#fefefe" stroke="none">
<path d="M5666 833 c4 -16 11 -36 16 -46 8 -17 76 -202 98 -267 17 -53 101 -273 111 -291 8 -16 21 -19 80 -19 64 0 70 2 64 17 -4 10 -23 61 -42 113 -19 52 -43 118 -53 145 -59 158 -84 228 -108 298 l-26 77 -73 0 -73 0 6 -27z"/>
<path d="M1622 737 l-42 -43 0 -198 0 -199 45 -43 45 -44 152 0 152 0 43 42 c39 38 43 47 43 90 0 26 -3 49 -7 49 -43 7 -113 4 -114 -5 -4 -60 -25 -74 -113 -74 -109 0 -106 -5 -106 183 0 112 4 165 12 173 7 7 39 12 76 12 57 0 67 -3 102 -32 56 -47 53 -68 -9 -68 l-49 0 -4 -50 -3 -50 115 0 115 0 0 150 0 150 -57 0 c-55 0 -58 -1 -58 -25 0 -14 -4 -25 -8 -25 -5 0 -19 11 -32 25 -22 24 -29 25 -140 25 l-116 0 -42 -43z"/>
<path d="M2240 495 l0 -285 65 0 65 0 0 230 0 230 135 0 135 0 0 55 0 55 -200 0 -200 0 0 -285z"/>
<path d="M2680 778 c0 -12 146 -506 159 -540 l11 -28 109 0 110 0 25 83 c64 208 108 357 125 420 l19 67 -73 0 -72 0 -6 -32 c-14 -84 -13 -83 -128 -83 -113 1 -108 -2 -130 73 l-12 42 -69 0 c-37 0 -68 -1 -68 -2z m355 -220 c6 -6 -54 -231 -65 -242 -15 -15 -40 2 -40 27 0 13 -6 43 -14 68 -21 70 -37 140 -32 147 4 7 144 7 151 0z"/>
<path d="M3310 495 l0 -286 72 3 72 3 34 60 c19 33 49 85 66 115 74 132 91 160 99 160 4 0 7 -77 7 -170 l0 -171 63 3 62 3 3 210 c2 116 1 243 -3 283 l-7 72 -64 0 c-35 0 -64 -4 -64 -10 0 -5 -13 -31 -29 -57 -15 -27 -56 -99 -91 -161 -88 -158 -94 -154 -98 61 l-2 167 -60 0 -60 0 0 -285z"/>
<path d="M3932 737 l-42 -43 0 -200 0 -200 43 -42 43 -42 140 0 140 0 47 48 c44 45 47 51 47 100 l0 52 -70 0 -70 0 0 -40 c0 -49 -15 -58 -96 -56 -94 2 -94 3 -94 181 0 184 0 185 106 185 79 0 94 -9 94 -57 l0 -33 64 0 c69 0 76 5 76 61 0 22 -13 44 -46 79 l-47 50 -146 0 -147 0 -42 -43z"/>
<path d="M4380 770 c0 -12 22 -89 80 -285 23 -77 47 -160 54 -185 26 -93 23 -91 144 -88 l106 3 17 50 c22 67 149 498 149 508 0 4 -31 7 -68 7 l-69 0 -11 -39 c-7 -21 -12 -45 -12 -54 0 -21 -12 -23 -125 -22 l-100 1 -14 57 -13 57 -69 0 c-40 0 -69 -4 -69 -10z m349 -220 c0 -8 -13 -64 -28 -125 -36 -146 -59 -151 -90 -20 -5 22 -16 66 -24 97 -8 32 -13 59 -11 60 1 2 36 3 78 3 61 0 76 -3 75 -15z"/>
<path d="M5000 495 l0 -285 65 0 66 0 20 47 c11 27 27 61 34 78 7 16 28 64 45 105 40 95 52 120 59 120 3 0 39 -79 80 -176 l74 -175 61 3 61 3 3 283 2 282 -63 0 -63 0 4 -146 c3 -85 1 -149 -5 -155 -6 -6 -24 27 -48 88 -68 175 -73 183 -109 183 -32 0 -33 -1 -88 -137 -31 -76 -59 -136 -63 -133 -4 3 -7 70 -8 150 l-2 145 -62 3 -63 3 0 -286z"/>
<path d="M1316 593 l-97 -98 101 -99 101 -100 32 32 32 32 -63 63 c-34 34 -62 68 -62 74 0 6 27 39 61 73 l61 62 -28 29 c-15 16 -31 29 -35 29 -3 0 -50 -44 -103 -97z"/>
<path d="M6143 666 c-13 -13 -23 -28 -23 -33 0 -5 27 -35 60 -68 33 -33 60 -63 60 -67 0 -4 -27 -35 -60 -69 -33 -34 -60 -64 -60 -68 0 -4 13 -20 29 -35 l28 -27 100 100 99 100 -96 96 c-52 52 -100 95 -105 95 -6 0 -20 -11 -32 -24z"/>
</g>


</svg>